mtllib material.mtl
usemtl material_0
v -0.00446000 0.00292500 0.11000000
v 0.00497400 0.00416700 0.11000000
v 0.00515000 0.00550000 0.11000000
v 0.00257500 0.00996000 0.11000000
v 0.00133300 0.01047400 0.11000000
v -0.00446000 0.00807500 0.11000000
v 0.00000000 0.01065000 0.11000000
v 0.00446000 0.00807500 0.11000000
v -0.00497500 0.00683300 0.11000000
v -0.00497500 0.00683300 0.11000000
v -0.00515000 0.00550000 0.11000000
v -0.00515000 0.00550000 0.11000000
v -0.00364200 0.00185800 0.11000000
v -0.00364200 0.00185800 0.11000000
v -0.00257500 0.00104000 0.11000000
v -0.00257500 0.00104000 0.11000000
v -0.00133300 0.00052500 0.11000000
v -0.00133300 0.00052500 0.11000000
v 0.00364100 0.00914200 0.11000000
v 0.00364100 0.00914200 0.11000000
v 0.00364100 0.00914200 0.11000000
v 0.00497400 0.00683300 0.11000000
v -0.00497500 0.00416700 0.11000000
v -0.00133300 0.01047500 0.11000000
v -0.00133300 0.01047500 0.11000000
v -0.00257500 0.00996000 0.11000000
v -0.00364200 0.00914200 0.11000000
v -0.00364200 0.00914200 0.11000000
v 0.00000000 0.00035000 0.11000000
v 0.00133300 0.00052500 0.11000000
v 0.00446000 0.00292500 0.11000000
v 0.00446000 0.00292500 0.11000000
v 0.00257500 0.00104000 0.11000000
v 0.00364100 0.00185800 0.11000000
v -0.00196100 0.01024400 0.07260200
v -0.00256700 0.00994500 0.07257500
v -0.00504500 0.00650800 0.07239500
v -0.00503900 0.00656500 0.07239600
v -0.00496500 0.00683000 0.07240400
v -0.00486300 0.00719600 0.07241400
v -0.00427300 0.00835800 0.07246400
v -0.00403300 0.00870300 0.07248200
v -0.00362200 0.00912200 0.07251000
v -0.00362200 0.00912200 0.07251000
v -0.00440500 0.00816700 0.07245400
v -0.00285500 0.00977800 0.07256000
v -0.00328100 0.00947000 0.07253400
v -0.00362000 0.00912400 0.07251100
v -0.00362000 0.00912400 0.07251100
v -0.00274600 0.00985700 0.07256700
v -0.00100000 0.01053800 0.07262800
v -0.00114600 0.01052100 0.07262600
v -0.00133000 0.01046600 0.07262100
v -0.00178500 0.01033100 0.07260900
v 0.00100100 0.01052400 0.07262600
v 0.00057700 0.01061800 0.07263400
v 0.00000300 0.01064500 0.07263600
v 0.00000300 0.01064500 0.07263600
v 0.00223200 0.01014100 0.07259200
v 0.00196900 0.01024700 0.07260100
v 0.00162400 0.01038700 0.07261400
v 0.00132800 0.01045200 0.07261900
v 0.00364100 0.00914100 0.07251000
v 0.00364100 0.00914100 0.07251000
v 0.00363700 0.00914600 0.07251000
v 0.00363700 0.00914600 0.07251000
v 0.00314600 0.00957700 0.07254300
v 0.00284900 0.00976100 0.07255900
v 0.00256100 0.00993800 0.07257400
v 0.00445100 0.00807000 0.07245000
v 0.00431400 0.00831300 0.07246100
v 0.00427700 0.00835800 0.07246400
v 0.00364100 0.00914100 0.07251000
v 0.00364100 0.00914100 0.07251000
v 0.00463900 0.00773600 0.07243500
v 0.00473700 0.00746400 0.07242600
v 0.00515000 0.00550000 0.07238300
v 0.00511800 0.00607300 0.07238700
v 0.00504100 0.00650400 0.07239600
v 0.00500200 0.00672700 0.07240100
v 0.00496500 0.00682900 0.07240400
v 0.00486300 0.00380400 0.07241500
v 0.00496500 0.00417000 0.07240400
v 0.00503900 0.00443500 0.07239700
v 0.00504500 0.00449500 0.07239600
v 0.00403300 0.00229700 0.07248200
v 0.00473700 0.00353800 0.07242600
v 0.00285700 0.00122400 0.07256000
v 0.00328100 0.00153100 0.07253400
v 0.00362100 0.00187700 0.07251100
v 0.00362100 0.00187700 0.07251100
v 0.00362200 0.00187800 0.07251100
v 0.00362200 0.00187800 0.07251100
v 0.00133000 0.00053400 0.07262100
v 0.00178500 0.00066900 0.07260900
v 0.00196500 0.00075800 0.07260100
v 0.00256700 0.00105500 0.07257400
v 0.00274600 0.00114300 0.07256600
v 0.00000300 0.00035400 0.07263600
v 0.00008200 0.00035100 0.07263600
v 0.00100500 0.00046200 0.07262700
v 0.00114700 0.00047900 0.07262600
v 0.00000000 0.00035500 0.07263600
v -0.00057600 0.00038200 0.07263400
v -0.00099700 0.00047500 0.07262600
v -0.00223200 0.00085900 0.07259200
v -0.00511800 0.00492700 0.07238700
v -0.00504100 0.00449300 0.07239600
v -0.00500100 0.00427300 0.07240000
v -0.00496500 0.00417000 0.07240400
v 0.00446000 0.00807500 0.11000000
v 0.00446000 0.00807500 0.11000000
v 0.00446000 0.00807500 0.11000000
v 0.00364100 0.00914200 0.11000000
v 0.00364100 0.00914200 0.11000000
v 0.00497400 0.00683300 0.11000000
v 0.00497400 0.00683300 0.11000000
v 0.00000000 0.01065000 0.11000000
v 0.00000000 0.01065000 0.11000000
v -0.00133300 0.01047500 0.11000000
v 0.00497400 0.00416700 0.11000000
v 0.00497400 0.00416700 0.11000000
v 0.00497400 0.00416700 0.11000000
v 0.00497400 0.00416700 0.11000000
v 0.00497400 0.00416700 0.11000000
v 0.00515000 0.00550000 0.11000000
v 0.00257500 0.00996000 0.11000000
v 0.00257500 0.00996000 0.11000000
v 0.00133300 0.01047400 0.11000000
v 0.00133300 0.01047400 0.11000000
v -0.00446000 0.00292500 0.11000000
v -0.00446000 0.00292500 0.11000000
v -0.00446000 0.00292500 0.11000000
v -0.00364200 0.00185800 0.11000000
v -0.00364200 0.00185800 0.11000000
v -0.00364200 0.00185800 0.11000000
v -0.00133300 0.00052500 0.11000000
v 0.00000000 0.00035000 0.11000000
v 0.00000000 0.00035000 0.11000000
v -0.00515000 0.00550000 0.07238300
v -0.00515000 0.00550000 0.07238300
v -0.00446000 0.00807500 0.11000000
v -0.00446000 0.00807500 0.11000000
v -0.00446000 0.00807500 0.11000000
v -0.00446000 0.00807500 0.11000000
v -0.00446000 0.00807500 0.11000000
v -0.00446000 0.00807500 0.11000000
v -0.00497500 0.00683300 0.11000000
v -0.00497500 0.00416700 0.11000000
v -0.00497500 0.00416700 0.11000000
v -0.00515000 0.00550000 0.07238300
v -0.00515000 0.00550000 0.07238300
v -0.00463900 0.00326400 0.07243400
v -0.00473600 0.00353300 0.07242500
v -0.00427600 0.00264000 0.07246300
v -0.00364100 0.00185900 0.07251000
v -0.00364100 0.00185900 0.07251000
v 0.00446000 0.00292500 0.11000000
v -0.00284600 0.00123800 0.07255900
v -0.00256100 0.00106200 0.07257400
v -0.00515000 0.00550000 0.11000000
v -0.00364200 0.00914200 0.11000000
v -0.00445100 0.00293000 0.07245000
v -0.00431400 0.00268700 0.07246100
v -0.00257500 0.00104000 0.11000000
v -0.00364000 0.00185700 0.07251000
v -0.00364000 0.00185700 0.07251000
v -0.00132800 0.00054800 0.07262000
v -0.00196500 0.00075100 0.07260200
v -0.00445100 0.00807100 0.07245000
v -0.00162300 0.00061300 0.07261500
v -0.00008200 0.01064900 0.07263700
v -0.00314600 0.00142200 0.07254300
v -0.00363700 0.00185300 0.07251000
v -0.00363700 0.00185300 0.07251000
v -0.00473600 0.00746500 0.07242500
v -0.00000000 0.01064500 0.07263600
v -0.00000000 0.01064500 0.07263600
v 0.00445100 0.00292900 0.07245100
v -0.00257500 0.00996000 0.11000000
v 0.00440500 0.00283300 0.07245400
v 0.00427400 0.00264300 0.07246400
v 0.00133300 0.00052500 0.11000000
v 0.00133300 0.00052500 0.11000000
v 0.00257500 0.00104000 0.11000000
v 0.00364100 0.00185800 0.11000000
v 0.00364100 0.00185800 0.11000000
vn -0.86600000 -0.50000000 0.00080000
vn 0.96580000 -0.25910000 0.00020000
vn 1.00000000 0.00010000 0.00050000
vn 0.50020000 0.86590000 0.00050000
vn 0.25850000 0.96600000 0.00040000
vn -0.86620000 0.49960000 0.00040000
vn -0.00000000 1.00000000 -0.00010000
vn 0.86600000 0.50000000 0.00080000
vn 0.00000000 0.00000000 1.00000000
vn -0.00000000 0.00010000 1.00000000
vn -1.00000000 -0.00010000 0.00050000
vn -1.00000000 0.00000000 0.00000000
vn 0.00000000 0.00000000 1.00000000
vn -0.00000000 0.00010000 1.00000000
vn 0.00000000 0.00000000 1.00000000
vn 0.00000000 -0.00010000 1.00000000
vn -0.00010000 0.00010000 1.00000000
vn 0.00000000 -0.00010000 1.00000000
vn 0.77220000 0.63530000 -0.00000000
vn 0.80040000 0.59940000 -0.00000000
vn 0.70700000 0.70720000 0.00050000
vn 0.96600000 0.25860000 0.00060000
vn -0.96590000 -0.25860000 0.00060000
vn 0.00020000 -0.00020000 1.00000000
vn -0.00010000 0.00010000 1.00000000
vn -0.50000000 0.86600000 -0.00030000
vn -0.68470000 0.72880000 -0.00070000
vn -0.70670000 0.70740000 0.00040000
vn 0.00040000 -1.00000000 0.00050000
vn 0.25880000 -0.96590000 -0.00020000
vn -0.00020000 0.00020000 1.00000000
vn 0.00010000 -0.00010000 1.00000000
vn -0.00020000 0.00020000 1.00000000
vn -0.00020000 0.00020000 1.00000000
vn -0.44180000 0.89710000 -0.00040000
vn -0.44430000 0.89580000 0.00310000
vn -0.99460000 0.10360000 0.00000000
vn -0.98260000 0.18550000 -0.00010000
vn -0.96320000 0.26870000 -0.00020000
vn -0.93770000 0.34730000 0.00050000
vn -0.82080000 0.57120000 0.00020000
vn -0.77190000 0.63580000 -0.00020000
vn -0.69990000 0.71420000 -0.00070000
vn -0.68470000 0.72880000 -0.00070000
vn -0.86690000 0.49850000 -0.00000000
vn -0.58630000 0.81010000 0.00140000
vn -0.65400000 0.75650000 0.00030000
vn -0.69910000 0.71500000 -0.00070000
vn -0.68470000 0.72880000 -0.00070000
vn -0.51680000 0.85610000 0.00400000
vn -0.12020000 0.99270000 0.00060000
vn -0.20400000 0.97900000 0.00020000
vn -0.28620000 0.95820000 0.00160000
vn -0.36520000 0.93090000 0.00150000
vn 0.21470000 0.97670000 -0.00060000
vn 0.13160000 0.99130000 0.00110000
vn 0.02530000 0.99970000 0.00130000
vn -0.00000000 1.00000000 -0.00010000
vn 0.45270000 0.89160000 0.00020000
vn 0.37510000 0.92690000 0.00100000
vn 0.29810000 0.95450000 0.00020000
vn 0.21460000 0.97670000 -0.00060000
vn 0.77220000 0.63530000 -0.00000000
vn 0.80040000 0.59940000 -0.00000000
vn 0.72000000 0.69400000 0.00000000
vn 0.77220000 0.63530000 -0.00000000
vn 0.59590000 0.80310000 0.00140000
vn 0.52610000 0.85040000 0.00120000
vn 0.52500000 0.85110000 -0.00070000
vn 0.87100000 0.49120000 -0.00030000
vn 0.82780000 0.56100000 0.00030000
vn 0.77660000 0.63000000 0.00050000
vn 0.78830000 0.61530000 0.00000000
vn 0.80040000 0.59940000 -0.00000000
vn 0.91020000 0.41420000 -0.00020000
vn 0.94120000 0.33790000 -0.00030000
vn 0.99970000 -0.02410000 0.00000000
vn 0.99330000 0.11570000 0.00090000
vn 0.98460000 0.17490000 0.00180000
vn 0.96680000 0.25530000 0.00080000
vn 0.94110000 0.33820000 -0.00020000
vn 0.93770000 -0.34740000 0.00050000
vn 0.96320000 -0.26860000 -0.00020000
vn 0.98260000 -0.18550000 -0.00010000
vn 0.99460000 -0.10370000 0.00000000
vn 0.77190000 -0.63570000 -0.00020000
vn 0.90480000 -0.42590000 0.00140000
vn 0.58630000 -0.81010000 0.00140000
vn 0.65390000 -0.75650000 0.00030000
vn 0.73450000 -0.67860000 -0.00070000
vn 0.75280000 -0.65820000 -0.00070000
vn 0.75280000 -0.65820000 -0.00070000
vn 0.73290000 -0.68030000 -0.00070000
vn 0.28640000 -0.95810000 0.00160000
vn 0.36560000 -0.93080000 0.00150000
vn 0.44220000 -0.89690000 -0.00040000
vn 0.44460000 -0.89570000 0.00300000
vn 0.51700000 -0.85600000 0.00400000
vn -0.04870000 -0.99880000 0.00630000
vn 0.03450000 -0.99940000 0.00350000
vn 0.11990000 -0.99280000 0.00060000
vn 0.20400000 -0.97890000 0.00020000
vn -0.04660000 -0.99890000 0.00300000
vn -0.13230000 -0.99120000 -0.00030000
vn -0.21470000 -0.97670000 -0.00060000
vn -0.45300000 -0.89150000 0.00020000
vn -0.99330000 -0.11570000 0.00090000
vn -0.98450000 -0.17540000 0.00180000
vn -0.96690000 -0.25530000 0.00080000
vn -0.94130000 -0.33750000 -0.00020000
vn 0.00000000 -0.00010000 1.00000000
vn -0.00000000 0.00010000 1.00000000
vn 0.00000000 0.00000000 1.00000000
vn 0.00000000 0.00000000 1.00000000
vn 0.00000000 -0.00010000 1.00000000
vn -0.00000000 0.00010000 1.00000000
vn 0.00000000 0.00000000 1.00000000
vn 0.00010000 -0.00010000 1.00000000
vn -0.00010000 0.00010000 1.00000000
vn -0.25880000 0.96590000 -0.00020000
vn 0.00010000 -0.00010000 1.00000000
vn -0.00010000 0.00010000 1.00000000
vn -0.00000000 0.00010000 1.00000000
vn 0.00000000 0.00000000 1.00000000
vn 0.00000000 -0.00010000 1.00000000
vn 0.00000000 0.00000000 1.00000000
vn -0.00000000 0.00010000 1.00000000
vn 0.00000000 0.00000000 1.00000000
vn 0.00010000 -0.00010000 1.00000000
vn -0.00000000 0.00010000 1.00000000
vn 0.00000000 -0.00010000 1.00000000
vn -0.00000000 0.00010000 1.00000000
vn 0.00000000 0.00000000 1.00000000
vn -0.79370000 -0.60830000 -0.00000000
vn -0.70700000 -0.70720000 0.00050000
vn -0.77340000 -0.63390000 -0.00000000
vn -0.25890000 -0.96590000 0.00100000
vn 0.00010000 -0.00010000 1.00000000
vn -0.00010000 0.00010000 1.00000000
vn -0.99960000 -0.02780000 0.00000000
vn -1.00000000 0.00000000 0.00000000
vn 0.00000000 0.00000000 1.00000000
vn 0.00000000 -0.00010000 1.00000000
vn 0.00020000 -0.00020000 1.00000000
vn -0.00010000 0.00010000 1.00000000
vn 0.00010000 -0.00010000 1.00000000
vn -0.00000000 0.00010000 1.00000000
vn -0.96580000 0.25910000 0.00020000
vn 0.00000000 0.00000000 1.00000000
vn 0.00000000 -0.00010000 1.00000000
vn -0.99860000 0.05190000 0.00000000
vn -1.00000000 0.00000000 0.00000000
vn -0.91000000 -0.41450000 -0.00020000
vn -0.94110000 -0.33820000 -0.00020000
vn -0.77640000 -0.63020000 0.00050000
vn -0.79370000 -0.60830000 -0.00000000
vn -0.78470000 -0.61990000 0.00000000
vn 0.86620000 -0.49960000 0.00040000
vn -0.52600000 -0.85040000 0.00120000
vn -0.52490000 -0.85120000 -0.00070000
vn 0.00000000 0.00000000 1.00000000
vn 0.00020000 -0.00020000 1.00000000
vn -0.87100000 -0.49120000 -0.00030000
vn -0.82770000 -0.56110000 0.00030000
vn -0.50010000 -0.86590000 0.00050000
vn -0.77340000 -0.63390000 -0.00000000
vn -0.79370000 -0.60830000 -0.00000000
vn -0.21470000 -0.97670000 -0.00060000
vn -0.37510000 -0.92700000 0.00100000
vn -0.90500000 0.42530000 0.00050000
vn -0.29770000 -0.95460000 0.00020000
vn -0.03400000 0.99940000 0.00350000
vn -0.59590000 -0.80300000 0.00140000
vn -0.77340000 -0.63390000 -0.00000000
vn -0.72060000 -0.69340000 0.00000000
vn -0.90480000 0.42580000 0.00140000
vn 0.02220000 0.99970000 0.00300000
vn -0.00000000 1.00000000 -0.00010000
vn 0.90510000 -0.42510000 0.00050000
vn 0.00020000 -0.00020000 1.00000000
vn 0.86710000 -0.49810000 -0.00000000
vn 0.82090000 -0.57100000 0.00020000
vn -0.00020000 0.00020000 1.00000000
vn 0.00010000 -0.00010000 1.00000000
vn 0.50000000 -0.86600000 -0.00030000
vn 0.75280000 -0.65820000 -0.00070000
vn 0.70670000 -0.70740000 0.00040000
f 133//133 124//124 126//126
f 127//127 130//130 147//147
f 146//146 129//129 118//118
f 113//113 9//9 161//161
f 132//132 14//14 123//123
f 124//124 13//13 15//15
f 125//125 16//16 18//18
f 10//10 112//112 147//147
f 143//143 111//111 115//115
f 142//142 114//114 128//128
f 126//126 117//117 133//133
f 132//132 116//116 112//112
f 131//131 111//111 150//150
f 149//149 113//113 161//161
f 119//119 25//25 145//145
f 144//144 24//24 180//180
f 144//144 180//180 162//162
f 17//17 139//139 122//122
f 121//121 138//138 184//184
f 121//121 184//184 32//32
f 31//31 183//183 33//33
f 31//31 33//33 34//34
f 27//27 49//49 44//44
f 7//7 58//58 178//178
f 19//19 63//63 66//66
f 20//20 74//74 64//64
f 186//186 91//91 92//92
f 136//136 166//166 174//174
f 134//134 156//156 167//167
f 12//12 152//152 141//141
f 35//35 36//36 26//26
f 37//37 11//11 38//38
f 38//38 11//11 148//148
f 38//38 148//148 39//39
f 39//39 148//148 40//40
f 41//41 6//6 42//42
f 42//42 6//6 28//28
f 42//42 28//28 43//43
f 41//41 45//45 6//6
f 6//6 45//45 170//170
f 6//6 170//170 148//148
f 148//148 170//170 176//176
f 148//148 176//176 40//40
f 46//46 47//47 28//28
f 28//28 47//47 48//48
f 26//26 36//36 28//28
f 28//28 36//36 50//50
f 28//28 50//50 46//46
f 51//51 52//52 120//120
f 120//120 52//52 53//53
f 120//120 53//53 26//26
f 26//26 53//53 54//54
f 26//26 54//54 35//35
f 55//55 56//56 5//5
f 5//5 56//56 57//57
f 5//5 57//57 7//7
f 7//7 177//177 120//120
f 120//120 177//177 172//172
f 120//120 172//172 51//51
f 59//59 60//60 4//4
f 4//4 60//60 61//61
f 4//4 61//61 5//5
f 5//5 61//61 62//62
f 5//5 62//62 55//55
f 65//65 67//67 21//21
f 21//21 67//67 68//68
f 21//21 68//68 4//4
f 4//4 68//68 69//69
f 4//4 69//69 59//59
f 70//70 71//71 8//8
f 8//8 71//71 72//72
f 8//8 72//72 21//21
f 21//21 72//72 73//73
f 70//70 8//8 75//75
f 75//75 8//8 22//22
f 75//75 22//22 76//76
f 3//3 77//77 78//78
f 78//78 79//79 3//3
f 3//3 79//79 80//80
f 3//3 80//80 22//22
f 22//22 80//80 81//81
f 22//22 81//81 76//76
f 82//82 83//83 2//2
f 2//2 83//83 84//84
f 2//2 84//84 3//3
f 3//3 84//84 85//85
f 3//3 85//85 77//77
f 182//182 158//158 86//86
f 86//86 158//158 187//187
f 182//182 181//181 158//158
f 158//158 181//181 179//179
f 158//158 179//179 2//2
f 2//2 179//179 87//87
f 2//2 87//87 82//82
f 88//88 89//89 187//187
f 89//89 90//90 187//187
f 187//187 93//93 86//86
f 30//30 94//94 185//185
f 185//185 94//94 95//95
f 95//95 96//96 185//185
f 185//185 96//96 97//97
f 185//185 97//97 187//187
f 187//187 97//97 98//98
f 187//187 98//98 88//88
f 99//99 100//100 30//30
f 100//100 101//101 30//30
f 30//30 101//101 102//102
f 30//30 102//102 94//94
f 99//99 30//30 103//103
f 103//103 30//30 29//29
f 103//103 29//29 104//104
f 104//104 29//29 137//137
f 104//104 137//137 105//105
f 106//106 169//169 165//165
f 165//165 169//169 171//171
f 165//165 171//171 137//137
f 137//137 171//171 168//168
f 137//137 168//168 105//105
f 175//175 173//173 135//135
f 135//135 173//173 159//159
f 135//135 159//159 165//165
f 165//165 159//159 160//160
f 165//165 160//160 106//106
f 163//163 164//164 1//1
f 1//1 164//164 155//155
f 1//1 155//155 135//135
f 135//135 155//155 157//157
f 163//163 1//1 153//153
f 153//153 1//1 23//23
f 153//153 23//23 154//154
f 37//37 151//151 11//11
f 11//11 140//140 107//107
f 107//107 108//108 11//11
f 11//11 108//108 109//109
f 11//11 109//109 23//23
f 23//23 109//109 110//110
f 23//23 110//110 154//154