mtllib material.mtl
usemtl material_0
v 0.05310600 -0.06520000 0.02306800
v 0.04947100 -0.06520000 0.03008400
v -0.01938900 -0.06520000 0.05455700
v 0.01938900 -0.06520000 -0.05455700
v 0.02663800 -0.06520000 -0.05140800
v 0.03339000 -0.06520000 -0.04730200
v 0.03952000 -0.06520000 -0.04231500
v -0.01178000 -0.06520000 -0.05668900
v -0.00395100 -0.06520000 -0.05776500
v -0.03339000 -0.06520000 0.04730300
v 0.00395100 -0.06520000 -0.05776500
v -0.01939000 -0.06520000 -0.05455700
v -0.03952000 -0.06520000 0.04231600
v -0.04491400 -0.06520000 0.03654000
v -0.02663800 -0.06520000 0.05140900
v 0.01178000 -0.06520000 -0.05668900
v 0.04491400 -0.06520000 0.03654000
v 0.03952000 -0.06520000 0.04231500
v 0.03339000 -0.06520000 0.04730300
v 0.02663800 -0.06520000 0.05140900
v 0.01939000 -0.06520000 0.05455700
v 0.01178000 -0.06520000 0.05668900
v 0.00395100 -0.06520000 0.05776500
v -0.00395100 -0.06520000 0.05776500
v -0.01178000 -0.06520000 0.05668900
v 0.04491400 -0.06520000 -0.03654000
v 0.04947100 -0.06520000 -0.03008400
v 0.05310600 -0.06520000 -0.02306700
v 0.05575300 -0.06520000 -0.01562100
v 0.05736000 -0.06520000 -0.00788400
v 0.05790000 -0.06520000 0.00000000
v 0.05736100 -0.06520000 0.00788400
v 0.05575300 -0.06520000 0.01562100
v -0.04947100 -0.06520000 0.03008400
v -0.05310600 -0.06520000 0.02306800
v -0.05575300 -0.06520000 0.01562100
v -0.05736000 -0.06520000 0.00788400
v -0.05790000 -0.06520000 0.00000000
v -0.05736000 -0.06520000 -0.00788400
v -0.05575300 -0.06520000 -0.01562100
v -0.05310600 -0.06520000 -0.02306700
v -0.04947100 -0.06520000 -0.03008400
v -0.04491400 -0.06520000 -0.03654000
v -0.03952000 -0.06520000 -0.04231500
v -0.03339000 -0.06520000 -0.04730200
v -0.02663800 -0.06520000 -0.05140800
v -0.05790000 -0.05990000 0.00000000
v -0.05736000 -0.05990000 -0.00788400
v -0.05575300 -0.05990000 -0.01562100
v -0.05310600 -0.05990000 -0.02306700
v -0.04947100 -0.05990000 -0.03008400
v -0.04491400 -0.05990000 -0.03654000
v -0.03952000 -0.05990000 -0.04231500
v -0.03339000 -0.05990000 -0.04730200
v -0.02663800 -0.05990000 -0.05140800
v -0.01939000 -0.05990000 -0.05455700
v 0.02663800 -0.05990000 -0.05140800
v 0.03339000 -0.05990000 -0.04730200
v 0.03952000 -0.05990000 -0.04231500
v 0.04491400 -0.05990000 -0.03654000
v 0.04947100 -0.05990000 -0.03008400
v 0.05310600 -0.05990000 -0.02306700
v 0.05575300 -0.05990000 -0.01562100
v 0.05736000 -0.05990000 -0.00788400
v 0.05790000 -0.05990000 0.00000000
v 0.05736100 -0.05990000 0.00788400
v 0.05575300 -0.05990000 0.01562100
v 0.05310600 -0.05990000 0.02306800
v 0.04947100 -0.05990000 0.03008400
v 0.04491400 -0.05990000 0.03654000
v 0.01939000 -0.05990000 0.05455700
v 0.00395100 -0.05990000 0.05776500
v -0.00395100 -0.05990000 0.05776500
v -0.01178000 -0.05990000 0.05668900
v -0.01938900 -0.05990000 0.05455700
v -0.02663800 -0.05990000 0.05140900
v -0.03339000 -0.05990000 0.04730300
v -0.03952000 -0.05990000 0.04231600
v -0.04491400 -0.05990000 0.03654000
v -0.05310600 -0.05990000 0.02306800
v -0.05575300 -0.05990000 0.01562100
v -0.05736000 -0.05990000 0.00788400
v 0.04491400 -0.06520000 -0.03654000
v 0.04947100 -0.06520000 -0.03008400
v 0.05310600 -0.06520000 -0.02306700
v -0.00395100 -0.06520000 0.05776500
v -0.00395100 -0.06520000 0.05776500
v -0.01178000 -0.06520000 0.05668900
v 0.03952000 -0.05990000 0.04231500
v 0.05575300 -0.06520000 -0.01562100
v 0.05736000 -0.06520000 -0.00788400
v 0.01178000 -0.06520000 0.05668900
v 0.00395100 -0.06520000 0.05776500
v 0.03339000 -0.05990000 0.04730300
v 0.01178000 -0.05990000 0.05668900
v 0.02663800 -0.05990000 0.05140900
v 0.03952000 -0.06520000 0.04231500
v 0.03339000 -0.06520000 0.04730300
v 0.02663800 -0.06520000 0.05140900
v 0.05736100 -0.06520000 0.00788400
v 0.05575300 -0.06520000 0.01562100
v 0.01939000 -0.06520000 0.05455700
v 0.05790000 -0.06520000 0.00000000
v -0.01178000 -0.05990000 -0.05668900
v -0.00395100 -0.05990000 -0.05776500
v -0.05310600 -0.06520000 -0.02306700
v -0.04947100 -0.06520000 -0.03008400
v -0.03952000 -0.06520000 0.04231600
v -0.04491400 -0.06520000 0.03654000
v -0.03339000 -0.06520000 0.04730300
v -0.05575300 -0.06520000 -0.01562100
v -0.02663800 -0.06520000 0.05140900
v -0.05790000 -0.06520000 0.00000000
v -0.05736000 -0.06520000 -0.00788400
v 0.00395100 -0.06520000 -0.05776500
v 0.01178000 -0.06520000 -0.05668900
v 0.04491400 -0.06520000 0.03654000
v -0.04947100 -0.06520000 0.03008400
v -0.05310600 -0.06520000 0.02306800
v -0.05575300 -0.06520000 0.01562100
v -0.05736000 -0.06520000 0.00788400
v -0.04947100 -0.05990000 0.03008400
v -0.01939000 -0.06520000 -0.05455700
v -0.02663800 -0.06520000 -0.05140800
v 0.05310600 -0.06520000 0.02306800
v 0.01938900 -0.06520000 -0.05455700
v 0.03952000 -0.06520000 -0.04231500
v 0.04947100 -0.06520000 0.03008400
v -0.01938900 -0.06520000 0.05455700
v -0.01938900 -0.06520000 0.05455700
v -0.01178000 -0.06520000 -0.05668900
v -0.00395100 -0.06520000 -0.05776500
v 0.00395100 -0.05990000 -0.05776500
v 0.01178000 -0.05990000 -0.05668900
v -0.04491400 -0.06520000 -0.03654000
v -0.03952000 -0.06520000 -0.04231500
v 0.01938900 -0.05990000 -0.05455700
v -0.03339000 -0.06520000 -0.04730200
v 0.03339000 -0.06520000 -0.04730200
v 0.02663800 -0.06520000 -0.05140800
vn 0.91720000 0.00000000 0.39840000
vn 0.85440000 0.00000000 0.51960000
vn -0.33490000 0.00000000 0.94220000
vn 0.33490000 0.00000000 -0.94220000
vn 0.00000000 -1.00000000 -0.00000000
vn 0.57670000 0.00000000 -0.81690000
vn 0.68250000 0.00000000 -0.73080000
vn 0.00000000 -1.00000000 -0.00000000
vn 0.00000000 -1.00000000 -0.00000000
vn -0.57670000 0.00000000 0.81690000
vn 0.00000000 -1.00000000 -0.00000000
vn -0.33490000 0.00000000 -0.94230000
vn -0.68250000 0.00000000 0.73080000
vn -0.77570000 0.00000000 0.63110000
vn 0.00000000 -1.00000000 -0.00000000
vn 0.00000000 -1.00000000 -0.00000000
vn 0.77570000 0.00000000 0.63110000
vn 0.00000000 -1.00000000 -0.00000000
vn 0.00000000 -1.00000000 -0.00000000
vn 0.00000000 -1.00000000 -0.00000000
vn 0.00000000 -1.00000000 -0.00000000
vn 0.20340000 0.00000000 0.97910000
vn 0.06820000 0.00000000 0.99770000
vn -0.06820000 0.00000000 0.99770000
vn -0.20340000 0.00000000 0.97910000
vn 0.77570000 0.00000000 -0.63110000
vn 0.85440000 0.00000000 -0.51950000
vn 0.91720000 0.00000000 -0.39840000
vn 0.96290000 0.00000000 -0.26980000
vn 0.99070000 0.00000000 -0.13610000
vn 1.00000000 -0.00000000 0.00000000
vn 0.99070000 0.00000000 0.13610000
vn 0.96290000 0.00000000 0.26980000
vn -0.85440000 0.00000000 0.51960000
vn -0.91720000 0.00000000 0.39840000
vn 0.00000000 -1.00000000 -0.00000000
vn 0.00000000 -1.00000000 -0.00000000
vn -1.00000000 0.00000000 0.00000000
vn -0.99070000 0.00000000 -0.13610000
vn -0.96290000 0.00000000 -0.26980000
vn -0.91720000 0.00000000 -0.39840000
vn -0.85440000 0.00000000 -0.51950000
vn -0.77570000 0.00000000 -0.63110000
vn -0.68250000 0.00000000 -0.73080000
vn -0.57670000 0.00000000 -0.81690000
vn -0.46000000 0.00000000 -0.88790000
vn -1.00000000 0.00000000 0.00000000
vn -0.99070000 0.00000000 -0.13610000
vn -0.96290000 0.00000000 -0.26980000
vn -0.91720000 0.00000000 -0.39840000
vn -0.85440000 0.00000000 -0.51950000
vn -0.77570000 0.00000000 -0.63110000
vn -0.68250000 0.00000000 -0.73080000
vn -0.57670000 0.00000000 -0.81690000
vn -0.46000000 0.00000000 -0.88790000
vn -0.33490000 0.00000000 -0.94230000
vn 0.46010000 0.00000000 -0.88790000
vn 0.57670000 0.00000000 -0.81690000
vn 0.68250000 0.00000000 -0.73080000
vn 0.77570000 0.00000000 -0.63110000
vn 0.85440000 0.00000000 -0.51950000
vn 0.91720000 0.00000000 -0.39840000
vn 0.96290000 0.00000000 -0.26980000
vn 0.99070000 0.00000000 -0.13610000
vn 1.00000000 -0.00000000 0.00000000
vn 0.99070000 0.00000000 0.13610000
vn 0.96290000 0.00000000 0.26980000
vn 0.91720000 0.00000000 0.39840000
vn 0.85440000 0.00000000 0.51960000
vn 0.77570000 0.00000000 0.63110000
vn 0.33490000 0.00000000 0.94230000
vn 0.06820000 0.00000000 0.99770000
vn -0.06820000 0.00000000 0.99770000
vn -0.20340000 0.00000000 0.97910000
vn -0.33490000 0.00000000 0.94220000
vn -0.46010000 0.00000000 0.88790000
vn -0.57670000 0.00000000 0.81690000
vn -0.68250000 0.00000000 0.73080000
vn -0.77570000 0.00000000 0.63110000
vn -0.91720000 0.00000000 0.39840000
vn -0.96290000 0.00000000 0.26980000
vn -0.99070000 0.00000000 0.13610000
vn 0.00000000 -1.00000000 -0.00000000
vn 0.00000000 -1.00000000 -0.00000000
vn 0.00000000 -1.00000000 -0.00000000
vn 0.00000000 -1.00000000 -0.00000000
vn 0.00000000 -1.00000000 0.00010000
vn 0.00000000 -1.00000000 0.00010000
vn 0.68250000 0.00000000 0.73080000
vn 0.00000000 -1.00000000 -0.00000000
vn 0.00000000 -1.00000000 -0.00000000
vn 0.00000000 -1.00000000 -0.00000000
vn 0.00000000 -1.00000000 -0.00000000
vn 0.57670000 0.00000000 0.81690000
vn 0.20340000 0.00000000 0.97910000
vn 0.46000000 0.00000000 0.88790000
vn 0.68250000 0.00000000 0.73080000
vn 0.57670000 0.00000000 0.81690000
vn 0.46000000 0.00000000 0.88790000
vn 0.00000000 -1.00000000 -0.00000000
vn 0.00000000 -1.00000000 -0.00000000
vn 0.33490000 0.00000000 0.94230000
vn 0.00000000 -1.00000000 -0.00000000
vn -0.20340000 0.00000000 -0.97910000
vn -0.06820000 0.00000000 -0.99770000
vn 0.00000000 -1.00000000 -0.00000000
vn 0.00000000 -1.00000000 -0.00000000
vn 0.00000000 -1.00000000 -0.00000000
vn 0.00000000 -1.00000000 -0.00000000
vn 0.00000000 -1.00000000 -0.00000000
vn 0.00000000 -1.00000000 -0.00000000
vn -0.46010000 0.00000000 0.88790000
vn 0.00000000 -1.00000000 -0.00000000
vn 0.00000000 -1.00000000 -0.00000000
vn 0.06820000 0.00000000 -0.99770000
vn 0.20340000 0.00000000 -0.97910000
vn 0.00000000 -1.00000000 -0.00000000
vn 0.00000000 -1.00000000 -0.00000000
vn 0.00000000 -1.00000000 -0.00000000
vn -0.96290000 0.00000000 0.26980000
vn -0.99070000 0.00000000 0.13610000
vn -0.85440000 0.00000000 0.51950000
vn 0.00000000 -1.00000000 -0.00000000
vn 0.00000000 -1.00000000 -0.00000000
vn 0.00000000 -1.00000000 -0.00000000
vn 0.00000000 -1.00000000 -0.00000000
vn 0.00000000 -1.00000000 -0.00000000
vn 0.00000000 -1.00000000 -0.00000000
vn 0.00000000 -1.00000000 -0.00000000
vn 0.00000000 -1.00000000 0.00010000
vn -0.20340000 0.00000000 -0.97910000
vn -0.06820000 0.00000000 -0.99770000
vn 0.06820000 0.00000000 -0.99770000
vn 0.20340000 0.00000000 -0.97910000
vn 0.00000000 -1.00000000 -0.00000000
vn 0.00000000 -1.00000000 -0.00000000
vn 0.33490000 0.00000000 -0.94220000
vn 0.00000000 -1.00000000 -0.00000000
vn 0.00000000 -1.00000000 -0.00000000
vn 0.46010000 0.00000000 -0.88790000
f 125//125 128//128 129//129
f 126//126 5//5 129//129
f 129//129 5//5 139//139
f 129//129 139//139 127//127
f 8//8 9//9 110//110
f 110//110 9//9 11//11
f 8//8 110//110 123//123
f 123//123 110//110 108//108
f 123//123 108//108 109//109
f 129//129 15//15 126//126
f 126//126 15//15 110//110
f 126//126 110//110 16//16
f 16//16 110//110 11//11
f 128//128 117//117 129//129
f 129//129 117//117 18//18
f 129//129 18//18 19//19
f 19//19 20//20 129//129
f 129//129 20//20 21//21
f 129//129 21//21 92//92
f 92//92 93//93 129//129
f 129//129 93//93 86//86
f 130//130 87//87 88//88
f 127//127 83//83 129//129
f 129//129 83//83 84//84
f 129//129 84//84 85//85
f 85//85 90//90 129//129
f 129//129 90//90 91//91
f 129//129 91//91 103//103
f 103//103 100//100 129//129
f 129//129 100//100 101//101
f 129//129 101//101 125//125
f 109//109 118//118 123//123
f 123//123 118//118 119//119
f 123//123 119//119 36//36
f 36//36 37//37 123//123
f 123//123 37//37 113//113
f 123//123 113//113 114//114
f 114//114 111//111 106//106
f 106//106 107//107 114//114
f 114//114 107//107 135//135
f 114//114 135//135 136//136
f 136//136 138//138 114//114
f 114//114 138//138 124//124
f 114//114 124//124 123//123
f 121//121 47//47 38//38
f 38//38 47//47 48//48
f 38//38 48//48 39//39
f 39//39 48//48 49//49
f 39//39 49//49 40//40
f 40//40 49//49 50//50
f 40//40 50//50 41//41
f 41//41 50//50 51//51
f 41//41 51//51 42//42
f 42//42 51//51 52//52
f 42//42 52//52 43//43
f 43//43 52//52 53//53
f 43//43 53//53 44//44
f 44//44 53//53 54//54
f 44//44 54//54 45//45
f 45//45 54//54 55//55
f 45//45 55//55 46//46
f 46//46 55//55 56//56
f 46//46 56//56 12//12
f 12//12 56//56 104//104
f 12//12 104//104 131//131
f 131//131 104//104 105//105
f 131//131 105//105 132//132
f 132//132 105//105 133//133
f 132//132 133//133 115//115
f 115//115 133//133 134//134
f 115//115 134//134 116//116
f 116//116 134//134 137//137
f 116//116 137//137 4//4
f 4//4 137//137 57//57
f 4//4 57//57 140//140
f 140//140 57//57 58//58
f 140//140 58//58 6//6
f 6//6 58//58 59//59
f 6//6 59//59 7//7
f 7//7 59//59 60//60
f 7//7 60//60 26//26
f 26//26 60//60 61//61
f 26//26 61//61 27//27
f 27//27 61//61 62//62
f 27//27 62//62 28//28
f 28//28 62//62 63//63
f 28//28 63//63 29//29
f 29//29 63//63 64//64
f 29//29 64//64 30//30
f 30//30 64//64 65//65
f 30//30 65//65 31//31
f 31//31 65//65 66//66
f 31//31 66//66 32//32
f 32//32 66//66 67//67
f 32//32 67//67 33//33
f 33//33 67//67 68//68
f 33//33 68//68 1//1
f 1//1 68//68 69//69
f 1//1 69//69 2//2
f 2//2 69//69 70//70
f 2//2 70//70 17//17
f 17//17 70//70 89//89
f 17//17 89//89 97//97
f 97//97 89//89 94//94
f 97//97 94//94 98//98
f 98//98 94//94 96//96
f 98//98 96//96 99//99
f 99//99 96//96 71//71
f 99//99 71//71 102//102
f 102//102 71//71 95//95
f 102//102 95//95 22//22
f 22//22 95//95 72//72
f 22//22 72//72 23//23
f 23//23 72//72 73//73
f 23//23 73//73 24//24
f 24//24 73//73 74//74
f 24//24 74//74 25//25
f 25//25 74//74 75//75
f 25//25 75//75 3//3
f 3//3 75//75 76//76
f 3//3 76//76 112//112
f 112//112 76//76 77//77
f 112//112 77//77 10//10
f 10//10 77//77 78//78
f 10//10 78//78 13//13
f 13//13 78//78 79//79
f 13//13 79//79 14//14
f 14//14 79//79 122//122
f 14//14 122//122 34//34
f 34//34 122//122 80//80
f 34//34 80//80 35//35
f 35//35 80//80 81//81
f 35//35 81//81 120//120
f 120//120 81//81 82//82
f 120//120 82//82 121//121
f 121//121 82//82 47//47