# Blender v2.82 (sub 7) OBJ File: 'FabConvert.com_cordless drill dewalt dcd791.blend'
# www.blender.org
mtllib trigger.mtl
o trigger_imagetostl_mesh0.003
v -0.088231 -0.004810 -0.040437
v -0.088231 -0.005446 -0.040412
v -0.089731 -0.006946 -0.040435
v -0.089855 -0.006946 -0.040437
v -0.088231 0.005014 -0.040437
v -0.089752 0.007054 -0.040437
v -0.089731 0.007054 -0.040437
v -0.088231 0.005554 -0.040420
v -0.095279 -0.006946 -0.040437
v -0.106832 -0.006946 -0.049194
v -0.107178 -0.006946 -0.050887
v -0.106247 -0.006946 -0.047568
v -0.105434 -0.006946 -0.046043
v -0.104410 -0.006946 -0.044651
v -0.103197 -0.006946 -0.043420
v -0.101820 -0.006946 -0.042377
v -0.100307 -0.006946 -0.041541
v -0.098690 -0.006946 -0.040932
v -0.097002 -0.006946 -0.040562
v -0.105861 -0.009998 -0.046538
v -0.095279 0.007054 -0.040437
v -0.107178 0.007054 -0.050887
v -0.106832 0.007054 -0.049194
v -0.106247 0.007054 -0.047568
v -0.105434 0.007054 -0.046043
v -0.104410 0.007054 -0.044651
v -0.103197 0.007054 -0.043420
v -0.101820 0.007054 -0.042377
v -0.100307 0.007054 -0.041541
v -0.098690 0.007054 -0.040932
v -0.097002 0.007054 -0.040562
v -0.106414 -0.006946 -0.068161
v -0.106047 -0.005446 -0.069702
v -0.106047 0.005554 -0.069702
v -0.106890 -0.006946 -0.065725
v -0.106414 0.007054 -0.068161
v -0.107245 -0.006946 -0.063268
v -0.106890 0.007054 -0.065725
v -0.107478 -0.006946 -0.060797
v -0.107245 0.007054 -0.063268
v -0.107588 -0.006946 -0.058317
v -0.107478 0.007054 -0.060797
v -0.107574 -0.006946 -0.055834
v -0.107588 0.007054 -0.058317
v -0.107438 -0.006946 -0.053356
v -0.107574 0.007054 -0.055834
v -0.107438 0.007054 -0.053356
v -0.089731 0.007054 -0.040992
v -0.089851 0.007054 -0.041188
v -0.089745 0.007054 -0.041071
v -0.089787 0.007054 -0.041139
v -0.090688 0.007054 -0.041614
v -0.091963 0.007054 -0.042486
v -0.092506 0.007054 -0.043038
v -0.091354 0.007054 -0.042009
v -0.093361 0.007054 -0.044206
v -0.094013 0.007054 -0.045499
v -0.094446 0.007054 -0.046880
v -0.094648 0.007054 -0.048314
v -0.094613 0.007054 -0.049762
v -0.094618 0.007054 -0.069263
v -0.092741 0.007054 -0.067363
v -0.092930 0.007054 -0.068348
v -0.093635 0.007054 -0.069062
v -0.089731 -0.006946 -0.040992
v -0.089851 -0.006946 -0.041188
v -0.089745 -0.006946 -0.041071
v -0.089787 -0.006946 -0.041139
v -0.090688 -0.006946 -0.041614
v -0.091354 -0.006946 -0.042009
v -0.091963 -0.006946 -0.042486
v -0.092506 -0.006946 -0.043038
v -0.093361 -0.006946 -0.044206
v -0.094013 -0.006946 -0.045499
v -0.094446 -0.006946 -0.046880
v -0.094648 -0.006946 -0.048314
v -0.094613 -0.006946 -0.049762
v -0.092741 -0.006946 -0.067363
v -0.093635 -0.006946 -0.069062
v -0.092930 -0.006946 -0.068348
v -0.094618 -0.006946 -0.069263
v -0.088231 0.005554 -0.040992
v -0.088231 -0.005446 -0.040992
v -0.088672 -0.005446 -0.042143
v -0.089170 -0.005446 -0.042524
v -0.089170 0.005554 -0.042524
v -0.088672 0.005554 -0.042143
v -0.088345 -0.005446 -0.041608
v -0.088345 0.005554 -0.041608
v -0.090008 -0.005446 -0.042951
v -0.090008 0.005554 -0.042951
v -0.090507 -0.005446 -0.043247
v -0.090507 0.005554 -0.043247
v -0.090964 -0.005446 -0.043605
v -0.090964 0.005554 -0.043605
v -0.091372 -0.005446 -0.044019
v -0.091372 0.005554 -0.044019
v -0.092233 0.005554 -0.045250
v -0.092233 -0.005446 -0.045250
v -0.092827 0.005554 -0.046629
v -0.092827 -0.005446 -0.046629
v -0.093127 0.005554 -0.048101
v -0.093127 -0.005446 -0.048101
v -0.093122 -0.005446 -0.049603
v -0.093122 0.005554 -0.049603
v -0.091250 -0.005446 -0.067204
v -0.091250 0.005554 -0.067204
v -0.093353 -0.005446 -0.070576
v -0.094757 -0.005446 -0.070757
v -0.094757 0.005554 -0.070757
v -0.093353 0.005554 -0.070576
v -0.092162 -0.005446 -0.069811
v -0.092162 0.005554 -0.069811
v -0.091413 -0.005446 -0.068610
v -0.091413 0.005554 -0.068610
v -0.094738 0.006304 -0.070556
v -0.094687 0.006853 -0.070010
v -0.091450 0.006304 -0.067225
v -0.091602 0.006304 -0.068544
v -0.091996 0.006853 -0.067283
v -0.091780 0.006304 -0.068953
v -0.092121 0.006853 -0.068363
v -0.092305 0.006304 -0.069670
v -0.092266 0.006853 -0.068697
v -0.093016 0.006304 -0.070204
v -0.092696 0.006853 -0.069284
v -0.093277 0.006853 -0.069721
v -0.093321 0.006304 -0.049624
v -0.093867 0.006853 -0.049682
v -0.091939 0.006853 -0.043528
v -0.091524 0.006304 -0.043888
v -0.093899 0.006853 -0.048358
v -0.093351 0.006304 -0.048389
v -0.093714 0.006853 -0.047045
v -0.093542 0.006853 -0.046405
v -0.093179 0.006304 -0.047166
v -0.093318 0.006853 -0.045781
v -0.093018 0.006304 -0.046569
v -0.092810 0.006304 -0.045987
v -0.092888 0.006853 -0.044884
v -0.092409 0.006304 -0.045152
v -0.090348 0.006853 -0.042283
v -0.091464 0.006853 -0.043046
v -0.090931 0.006853 -0.042628
v -0.091098 0.006304 -0.043455
v -0.090621 0.006304 -0.043081
v -0.090099 0.006304 -0.042772
v -0.089261 0.006304 -0.042345
v -0.089510 0.006853 -0.041856
v -0.088532 0.006304 -0.041536
v -0.088432 0.006304 -0.040992
v -0.088822 0.006304 -0.042008
v -0.089045 0.006853 -0.041339
v -0.088981 0.006853 -0.040992
v -0.089230 0.006853 -0.041641
v -0.088432 -0.006196 -0.040992
v -0.088981 -0.006745 -0.040992
v -0.089045 -0.006745 -0.041339
v -0.089230 -0.006745 -0.041641
v -0.089510 -0.006745 -0.041856
v -0.089261 -0.006196 -0.042345
v -0.088532 -0.006196 -0.041536
v -0.088822 -0.006196 -0.042008
v -0.090099 -0.006196 -0.042772
v -0.090348 -0.006745 -0.042283
v -0.091939 -0.006745 -0.043528
v -0.091098 -0.006196 -0.043455
v -0.091524 -0.006196 -0.043888
v -0.090621 -0.006196 -0.043081
v -0.091464 -0.006745 -0.043046
v -0.090931 -0.006745 -0.042628
v -0.093351 -0.006196 -0.048389
v -0.093321 -0.006196 -0.049624
v -0.093867 -0.006745 -0.049682
v -0.093899 -0.006745 -0.048358
v -0.093179 -0.006196 -0.047166
v -0.093018 -0.006196 -0.046569
v -0.093715 -0.006745 -0.047045
v -0.092810 -0.006196 -0.045987
v -0.093542 -0.006745 -0.046405
v -0.093318 -0.006745 -0.045781
v -0.092409 -0.006196 -0.045152
v -0.092888 -0.006745 -0.044884
v -0.091450 -0.006196 -0.067225
v -0.091996 -0.006745 -0.067283
v -0.094738 -0.006196 -0.070556
v -0.092121 -0.006745 -0.068363
v -0.092266 -0.006745 -0.068697
v -0.091602 -0.006196 -0.068544
v -0.092696 -0.006745 -0.069284
v -0.091780 -0.006196 -0.068953
v -0.093277 -0.006745 -0.069721
v -0.094687 -0.006745 -0.070010
v -0.092305 -0.006196 -0.069670
v -0.093016 -0.006196 -0.070204
vn 0.0000 1.0000 0.0000
vn 0.0000 -1.0000 0.0000
vn 1.0000 0.0000 0.0000
vn 0.6087 0.0000 -0.7934
vn 0.8526 0.0000 -0.5226
vn 0.9833 0.0000 -0.1823
vn 0.4539 0.0000 -0.8911
vn 0.5103 0.0000 -0.8600
vn 0.6165 0.0000 -0.7873
vn 0.7125 0.0000 -0.7016
vn 0.9187 0.0000 -0.3950
vn 0.8192 0.0000 -0.5736
vn 0.9798 0.0000 -0.1999
vn 1.0000 0.0000 0.0035
vn 0.9944 0.0000 0.1057
vn 0.1277 0.0000 -0.9918
vn 0.5401 0.0000 -0.8416
vn 0.9934 0.0000 -0.1150
vn 0.8484 0.0000 -0.5293
vn -0.0930 0.0000 -0.9957
vn -0.0899 0.2588 -0.9617
vn -0.0993 0.7011 -0.7061
vn -0.0998 0.7067 -0.7004
vn -0.0241 0.9659 -0.2577
vn 0.9611 0.2529 -0.1113
vn 0.1236 0.2529 -0.9596
vn 0.7110 0.6983 -0.0823
vn 0.8359 0.1715 -0.5215
vn 0.8859 0.2582 -0.3854
vn 0.2400 0.9697 -0.0459
vn 0.2631 0.9643 -0.0305
vn 0.7802 0.2562 -0.5707
vn 0.6493 0.7061 -0.2824
vn 0.2379 0.9657 -0.1035
vn 0.5321 0.1715 -0.8291
vn 0.1864 0.3677 -0.9111
vn 0.5806 0.2562 -0.7728
vn 0.1685 0.9716 -0.1664
vn 0.5738 0.7032 -0.4197
vn 0.2110 0.9652 -0.1544
vn 0.1448 0.6913 -0.7079
vn 0.0541 0.9630 -0.2642
vn 0.4270 0.7032 -0.5684
vn 0.1570 0.9652 -0.2090
vn 0.9605 0.2588 0.1021
vn 0.7031 0.7071 0.0748
vn 0.2574 0.9659 0.0274
vn 0.2096 0.9657 -0.1532
vn 0.7915 0.2575 -0.5542
vn 0.2596 0.9657 0.0062
vn 0.9659 0.2580 0.0232
vn 0.7081 0.7059 0.0170
vn 0.9577 0.2876 0.0034
vn 0.2571 0.9657 -0.0362
vn 0.2564 0.9632 -0.0804
vn 0.2501 0.9659 -0.0673
vn 0.9340 0.3023 -0.1905
vn 0.7014 0.7059 -0.0987
vn 0.9624 0.2356 -0.1354
vn 0.2438 0.9659 -0.0875
vn 0.6831 0.7068 -0.1837
vn 0.6658 0.7068 -0.2390
vn 0.9328 0.2586 -0.2509
vn 0.8757 0.3023 -0.3765
vn 0.9092 0.2586 -0.3263
vn 0.2378 0.9639 -0.1201
vn 0.2338 0.9658 -0.1121
vn 0.2054 0.9680 -0.1438
vn 0.5807 0.7053 -0.4066
vn 0.8711 0.2583 -0.4176
vn 0.7915 0.2576 -0.5542
vn 0.6382 0.7064 -0.3060
vn 0.1848 0.9658 -0.1819
vn 0.1323 0.9658 -0.2230
vn 0.5044 0.7064 -0.4966
vn 0.1599 0.9658 -0.2042
vn 0.6884 0.2583 -0.6778
vn 0.4930 0.2583 -0.8308
vn 0.3612 0.7064 -0.6088
vn 0.5956 0.2583 -0.7606
vn 0.4929 0.2583 -0.8308
vn 0.4364 0.7064 -0.5573
vn 0.4384 0.2588 -0.8607
vn 0.3209 0.7071 -0.6301
vn 0.1175 0.9659 -0.2306
vn 0.5886 0.2548 -0.7673
vn 0.1600 0.9648 -0.2086
vn 0.9508 0.2548 -0.1763
vn 0.9508 0.2548 -0.1762
vn 0.8245 0.2548 -0.5053
vn 0.5886 0.2548 -0.7672
vn 0.2585 0.9648 -0.0479
vn 0.7011 0.7011 -0.1300
vn 0.4340 0.7011 -0.5658
vn 0.2241 0.9648 -0.1374
vn 0.6080 0.7011 -0.3726
vn 0.2242 0.9648 -0.1374
vn 0.9659 0.2588 0.0000
vn 0.5793 0.5793 0.5734
vn 0.2588 0.9659 0.0000
vn 0.5800 0.5865 0.5653
vn 0.5808 -0.5894 0.5615
vn 0.9659 -0.2588 0.0000
vn 0.5799 -0.5799 0.5722
vn 0.2588 -0.9659 0.0000
vn 0.2585 -0.9648 -0.0479
vn 0.9508 -0.2548 -0.1762
vn 0.2241 -0.9648 -0.1374
vn 0.1600 -0.9648 -0.2087
vn 0.4340 -0.7011 -0.5658
vn 0.1600 -0.9648 -0.2086
vn 0.2242 -0.9648 -0.1374
vn 0.7011 -0.7011 -0.1300
vn 0.8245 -0.2548 -0.5053
vn 0.5886 -0.2548 -0.7672
vn 0.6080 -0.7011 -0.3726
vn 0.8245 -0.2547 -0.5053
vn 0.6079 -0.7011 -0.3726
vn 0.4384 -0.2588 -0.8607
vn 0.3209 -0.7071 -0.6301
vn 0.1175 -0.9659 -0.2306
vn 0.1848 -0.9658 -0.1819
vn 0.1323 -0.9658 -0.2230
vn 0.6884 -0.2583 -0.6778
vn 0.4930 -0.2583 -0.8308
vn 0.5956 -0.2583 -0.7606
vn 0.4929 -0.2583 -0.8308
vn 0.5044 -0.7064 -0.4966
vn 0.1848 -0.9658 -0.1820
vn 0.3612 -0.7064 -0.6088
vn 0.1599 -0.9658 -0.2042
vn 0.4364 -0.7064 -0.5573
vn 0.7915 -0.2576 -0.5542
vn 0.2096 -0.9657 -0.1532
vn 0.9659 -0.2580 0.0232
vn 0.7081 -0.7059 0.0170
vn 0.9577 -0.2876 0.0034
vn 0.2596 -0.9657 0.0062
vn 0.9340 -0.3023 -0.1905
vn 0.9624 -0.2356 -0.1354
vn 0.9328 -0.2586 -0.2509
vn 0.2571 -0.9657 -0.0362
vn 0.7014 -0.7059 -0.0987
vn 0.8757 -0.3023 -0.3765
vn 0.9092 -0.2586 -0.3263
vn 0.2564 -0.9632 -0.0804
vn 0.6831 -0.7068 -0.1837
vn 0.2501 -0.9659 -0.0673
vn 0.2438 -0.9659 -0.0875
vn 0.6658 -0.7068 -0.2390
vn 0.8711 -0.2584 -0.4176
vn 0.5807 -0.7052 -0.4066
vn 0.2378 -0.9639 -0.1201
vn 0.6382 -0.7064 -0.3060
vn 0.2338 -0.9658 -0.1121
vn 0.2054 -0.9680 -0.1438
vn 0.5807 -0.7053 -0.4066
vn 0.9605 -0.2588 0.1021
vn 0.7031 -0.7071 0.0748
vn 0.2574 -0.9659 0.0274
vn 0.9611 -0.2529 -0.1113
vn 0.1236 -0.2529 -0.9596
vn 0.2631 -0.9643 -0.0305
vn 0.2400 -0.9697 -0.0459
vn 0.2379 -0.9657 -0.1035
vn 0.7110 -0.6983 -0.0823
vn 0.1685 -0.9716 -0.1664
vn 0.2110 -0.9652 -0.1544
vn 0.8359 -0.1715 -0.5215
vn 0.6493 -0.7061 -0.2824
vn 0.8859 -0.2582 -0.3854
vn 0.0541 -0.9630 -0.2642
vn 0.1570 -0.9652 -0.2090
vn 0.7802 -0.2562 -0.5707
vn 0.5738 -0.7032 -0.4197
vn 0.1448 -0.6913 -0.7079
vn 0.5321 -0.1715 -0.8291
vn 0.5806 -0.2562 -0.7728
vn 0.4270 -0.7032 -0.5684
vn 0.1864 -0.3677 -0.9111
vn -0.0899 -0.2588 -0.9617
vn -0.0998 -0.7067 -0.7004
vn -0.0241 -0.9659 -0.2577
vn -0.0993 -0.7011 -0.7061
usemtl black_plastic
s off
f 48//1 6//1 7//1
f 49//1 48//1 50//1
f 49//1 50//1 51//1
f 49//1 6//1 48//1
f 52//1 6//1 49//1
f 21//1 53//1 54//1
f 21//1 55//1 53//1
f 21//1 52//1 55//1
f 21//1 6//1 52//1
f 56//1 31//1 21//1
f 56//1 21//1 54//1
f 57//1 31//1 56//1
f 30//1 31//1 57//1
f 58//1 30//1 57//1
f 29//1 30//1 58//1
f 28//1 29//1 58//1
f 27//1 58//1 59//1
f 27//1 28//1 58//1
f 26//1 27//1 59//1
f 25//1 59//1 60//1
f 25//1 26//1 59//1
f 24//1 25//1 60//1
f 23//1 24//1 60//1
f 22//1 23//1 60//1
f 47//1 22//1 60//1
f 46//1 47//1 60//1
f 61//1 62//1 63//1
f 61//1 63//1 64//1
f 44//1 46//1 60//1
f 44//1 60//1 62//1
f 42//1 44//1 62//1
f 40//1 42//1 62//1
f 40//1 62//1 61//1
f 38//1 40//1 61//1
f 36//1 38//1 61//1
f 4//2 65//2 3//2
f 65//2 66//2 67//2
f 67//2 66//2 68//2
f 4//2 66//2 65//2
f 4//2 69//2 66//2
f 4//2 70//2 69//2
f 71//2 9//2 72//2
f 70//2 9//2 71//2
f 4//2 9//2 70//2
f 19//2 73//2 9//2
f 9//2 73//2 72//2
f 19//2 74//2 73//2
f 19//2 18//2 74//2
f 18//2 75//2 74//2
f 18//2 17//2 75//2
f 17//2 16//2 75//2
f 75//2 15//2 76//2
f 16//2 15//2 75//2
f 15//2 14//2 76//2
f 76//2 13//2 77//2
f 14//2 13//2 76//2
f 13//2 12//2 77//2
f 12//2 10//2 77//2
f 10//2 11//2 77//2
f 11//2 45//2 77//2
f 78//2 79//2 80//2
f 45//2 43//2 77//2
f 78//2 81//2 79//2
f 43//2 41//2 77//2
f 77//2 41//2 78//2
f 41//2 39//2 78//2
f 78//2 37//2 81//2
f 39//2 37//2 78//2
f 37//2 35//2 81//2
f 35//2 32//2 81//2
f 5//3 82//3 8//3
f 5//3 1//3 82//3
f 2//3 83//3 1//3
f 1//3 83//3 82//3
f 84//4 85//4 86//4
f 84//4 86//4 87//4
f 88//5 87//5 89//5
f 88//5 84//5 87//5
f 83//6 89//6 82//6
f 83//6 88//6 89//6
f 86//7 90//7 91//7
f 85//7 90//7 86//7
f 91//8 92//8 93//8
f 90//8 92//8 91//8
f 93//9 94//9 95//9
f 92//9 94//9 93//9
f 95//10 96//10 97//10
f 94//10 96//10 95//10
f 98//11 99//11 100//11
f 97//12 99//12 98//12
f 96//12 99//12 97//12
f 100//13 101//13 102//13
f 99//11 101//11 100//11
f 101//13 103//13 102//13
f 102//14 104//14 105//14
f 103//14 104//14 102//14
f 105//15 106//15 107//15
f 104//15 106//15 105//15
f 108//16 109//16 110//16
f 108//16 110//16 111//16
f 112//17 111//17 113//17
f 112//17 108//17 111//17
f 114//18 115//18 107//18
f 114//19 113//19 115//19
f 114//19 112//19 113//19
f 106//18 114//18 107//18
f 109//20 34//20 110//20
f 109//20 33//20 34//20
f 116//21 110//21 34//21
f 117//22 34//22 36//22
f 117//23 116//23 34//23
f 61//24 117//24 36//24
f 115//25 118//25 107//25
f 116//26 111//26 110//26
f 119//27 120//27 118//27
f 119//25 118//25 115//25
f 121//28 115//28 113//28
f 121//29 119//29 115//29
f 122//30 63//30 62//30
f 122//31 62//31 120//31
f 122//27 120//27 119//27
f 123//32 121//32 113//32
f 124//33 119//33 121//33
f 124//34 63//34 122//34
f 124//33 122//33 119//33
f 125//35 113//35 111//35
f 125//36 111//36 116//36
f 125//37 123//37 113//37
f 126//38 64//38 63//38
f 126//39 124//39 121//39
f 126//39 121//39 123//39
f 126//40 63//40 124//40
f 127//41 116//41 117//41
f 127//42 117//42 61//42
f 127//42 61//42 64//42
f 127//43 123//43 125//43
f 127//41 125//41 116//41
f 127//44 64//44 126//44
f 127//43 126//43 123//43
f 128//45 107//45 118//45
f 128//45 105//45 107//45
f 129//46 118//46 120//46
f 129//47 120//47 62//47
f 129//46 128//46 118//46
f 60//47 129//47 62//47
f 130//48 56//48 54//48
f 97//49 98//49 131//49
f 132//50 129//50 60//50
f 132//50 60//50 59//50
f 133//51 105//51 128//51
f 133//52 128//52 129//52
f 133//53 102//53 105//53
f 133//52 129//52 132//52
f 134//54 59//54 58//54
f 134//54 132//54 59//54
f 135//55 58//55 57//55
f 135//56 134//56 58//56
f 136//57 100//57 102//57
f 136//58 133//58 132//58
f 136//59 102//59 133//59
f 136//58 132//58 134//58
f 137//60 135//60 57//60
f 138//61 136//61 134//61
f 138//62 135//62 137//62
f 138//63 100//63 136//63
f 138//61 134//61 135//61
f 139//64 98//64 100//64
f 139//65 100//65 138//65
f 139//62 138//62 137//62
f 140//66 57//66 56//66
f 140//67 137//67 57//67
f 140//68 56//68 130//68
f 141//69 130//69 131//69
f 141//69 140//69 130//69
f 141//70 98//70 139//70
f 141//71 131//71 98//71
f 141//72 139//72 137//72
f 141//72 137//72 140//72
f 130//73 54//73 53//73
f 142//74 55//74 52//74
f 143//75 131//75 130//75
f 143//73 130//73 53//73
f 144//76 53//76 55//76
f 144//76 143//76 53//76
f 144//74 55//74 142//74
f 145//77 97//77 131//77
f 145//77 95//77 97//77
f 145//75 131//75 143//75
f 146//78 147//78 91//78
f 146//79 142//79 147//79
f 146//80 93//80 95//80
f 146//81 91//81 93//81
f 146//79 144//79 142//79
f 146//82 143//82 144//82
f 146//82 145//82 143//82
f 146//80 95//80 145//80
f 86//83 91//83 147//83
f 148//83 86//83 147//83
f 149//84 147//84 142//84
f 149//84 148//84 147//84
f 49//85 142//85 52//85
f 49//85 149//85 142//85
f 148//86 87//86 86//86
f 49//87 51//87 149//87
f 150//88 151//88 82//88
f 150//89 82//89 89//89
f 152//90 89//90 87//90
f 152//91 87//91 148//91
f 152//90 150//90 89//90
f 153//92 50//92 48//92
f 153//93 154//93 151//93
f 153//92 48//92 154//92
f 153//93 151//93 150//93
f 155//94 148//94 149//94
f 155//95 51//95 50//95
f 155//96 150//96 152//96
f 155//97 50//97 153//97
f 155//94 152//94 148//94
f 155//87 149//87 51//87
f 155//96 153//96 150//96
f 8//98 82//98 151//98
f 7//99 151//99 154//99
f 7//100 154//100 48//100
f 7//101 8//101 151//101
f 156//102 2//102 3//102
f 156//103 83//103 2//103
f 157//104 156//104 3//104
f 65//105 157//105 3//105
f 157//106 65//106 67//106
f 88//107 83//107 156//107
f 158//108 67//108 68//108
f 158//106 157//106 67//106
f 159//109 68//109 66//109
f 159//110 160//110 161//110
f 159//111 66//111 160//111
f 159//112 158//112 68//112
f 162//113 156//113 157//113
f 162//114 84//114 88//114
f 162//113 157//113 158//113
f 162//107 88//107 156//107
f 163//115 161//115 85//115
f 163//115 85//115 84//115
f 163//110 159//110 161//110
f 163//116 158//116 159//116
f 163//117 84//117 162//117
f 163//118 162//118 158//118
f 164//119 85//119 161//119
f 164//120 161//120 160//120
f 164//119 90//119 85//119
f 165//120 164//120 160//120
f 69//121 160//121 66//121
f 69//121 165//121 160//121
f 71//122 72//122 166//122
f 69//123 70//123 165//123
f 167//124 168//124 96//124
f 167//124 96//124 94//124
f 169//125 90//125 164//125
f 169//126 94//126 92//126
f 169//127 92//127 90//127
f 169//126 167//126 94//126
f 170//128 166//128 168//128
f 170//128 168//128 167//128
f 170//129 71//129 166//129
f 171//130 164//130 165//130
f 171//131 70//131 71//131
f 171//130 169//130 164//130
f 171//132 170//132 167//132
f 171//131 71//131 170//131
f 171//132 167//132 169//132
f 171//123 165//123 70//123
f 168//133 99//133 96//133
f 72//134 73//134 166//134
f 172//135 173//135 104//135
f 172//136 174//136 173//136
f 172//137 104//137 103//137
f 175//138 76//138 77//138
f 175//138 77//138 174//138
f 175//136 174//136 172//136
f 176//139 103//139 101//139
f 176//140 172//140 103//140
f 177//141 176//141 101//141
f 178//142 75//142 76//142
f 178//142 76//142 175//142
f 178//143 172//143 176//143
f 178//143 175//143 172//143
f 179//144 101//144 99//144
f 179//145 177//145 101//145
f 180//146 74//146 75//146
f 180//147 178//147 176//147
f 180//148 75//148 178//148
f 180//147 176//147 177//147
f 181//149 74//149 180//149
f 181//150 177//150 179//150
f 181//150 180//150 177//150
f 182//151 179//151 99//151
f 182//133 99//133 168//133
f 183//152 168//152 166//152
f 183//153 73//153 74//153
f 183//154 181//154 179//154
f 183//155 74//155 181//155
f 183//156 166//156 73//156
f 183//157 182//157 168//157
f 183//154 179//154 182//154
f 106//158 104//158 173//158
f 184//159 173//159 174//159
f 184//158 106//158 173//158
f 185//159 184//159 174//159
f 78//160 174//160 77//160
f 78//160 185//160 174//160
f 114//161 106//161 184//161
f 109//162 108//162 186//162
f 187//163 185//163 78//163
f 187//164 78//164 80//164
f 188//165 187//165 80//165
f 189//166 184//166 185//166
f 189//166 185//166 187//166
f 189//161 114//161 184//161
f 190//167 80//167 79//167
f 190//168 188//168 80//168
f 191//169 112//169 114//169
f 191//170 187//170 188//170
f 191//171 114//171 189//171
f 191//170 189//170 187//170
f 192//172 79//172 81//172
f 192//172 81//172 193//172
f 192//173 190//173 79//173
f 194//174 112//174 191//174
f 194//175 188//175 190//175
f 194//175 191//175 188//175
f 195//176 193//176 186//176
f 195//177 108//177 112//177
f 195//178 112//178 194//178
f 195//179 190//179 192//179
f 195//176 192//176 193//176
f 195//180 186//180 108//180
f 195//179 194//179 190//179
f 33//181 109//181 186//181
f 33//182 186//182 193//182
f 32//183 193//183 81//183
f 32//184 33//184 193//184
