# Blender v2.82 (sub 7) OBJ File: ''
# www.blender.org
mtllib trigger.mtl
o trigger_drillphotogram.001
v -0.109563 -0.007598 -0.077522
v -0.108819 -0.006079 -0.079530
v -0.106762 -0.006161 -0.077676
v -0.112892 -0.009778 -0.075366
v -0.113543 -0.009973 -0.071482
v -0.115207 -0.010182 -0.065686
v -0.115180 -0.009996 -0.058121
v -0.113186 -0.009486 -0.065503
v -0.110045 -0.008257 -0.075780
v -0.111100 -0.008932 -0.071928
v -0.108180 -0.007996 -0.073901
v -0.108313 -0.007504 -0.075837
v -0.106013 -0.006942 -0.075912
v -0.107788 -0.008330 -0.072135
v -0.109915 -0.008942 -0.067083
v -0.115354 -0.010502 -0.054333
v -0.112417 -0.009245 -0.057647
v -0.111971 -0.009408 -0.054719
v -0.111431 -0.009888 -0.051547
v -0.106386 -0.008623 -0.055288
v -0.104794 -0.008517 -0.064042
v -0.107306 -0.009807 -0.049065
v -0.110485 -0.009362 -0.052896
v -0.105649 -0.008618 -0.053023
v -0.105870 -0.008929 -0.050926
v -0.104528 -0.006205 -0.076814
v -0.102690 -0.007466 -0.074162
v -0.100959 -0.006249 -0.076119
v -0.102772 -0.008003 -0.072252
v -0.104098 -0.008365 -0.069804
v -0.102348 -0.008047 -0.070399
v -0.100585 -0.007024 -0.074285
v -0.098778 -0.006031 -0.074370
v -0.100496 -0.007330 -0.072377
v -0.100406 -0.007077 -0.070467
v -0.098850 -0.006101 -0.072425
v -0.099967 -0.006375 -0.069174
v -0.102157 -0.007900 -0.067972
v -0.102034 -0.007317 -0.063545
v -0.103804 -0.008122 -0.061390
v -0.100878 -0.006182 -0.064261
v -0.101625 -0.006562 -0.059037
v -0.103607 -0.007957 -0.056443
v -0.101435 -0.007033 -0.052182
v -0.103343 -0.008138 -0.051563
v -0.103004 -0.008527 -0.049305
v -0.101230 -0.008425 -0.047175
v -0.100699 -0.006282 -0.052303
v -0.099506 -0.006252 -0.048439
v -0.106625 -0.004148 -0.079337
v -0.106467 -0.002377 -0.080036
v -0.107306 -0.000413 -0.080866
v -0.107368 0.001397 -0.080871
v -0.106519 0.003404 -0.079930
v -0.106492 0.005415 -0.078676
v -0.108452 0.006506 -0.079623
v -0.108333 0.007630 -0.077872
v -0.110115 0.009462 -0.077595
v -0.104615 -0.004599 -0.078315
v -0.104423 -0.002351 -0.079249
v -0.100940 -0.004261 -0.078051
v -0.100790 -0.002389 -0.078905
v -0.098655 -0.002564 -0.078379
v -0.104661 -0.000472 -0.079722
v -0.102723 -0.000471 -0.079437
v -0.104659 0.001429 -0.079618
v -0.102712 0.001440 -0.079319
v -0.100809 -0.000476 -0.079430
v -0.098885 -0.000482 -0.079197
v -0.099063 0.001426 -0.079213
v -0.097058 -0.000383 -0.078147
v -0.097000 0.001387 -0.078163
v -0.104167 0.003436 -0.078881
v -0.104414 0.005243 -0.077799
v -0.098901 0.003351 -0.078432
v -0.106360 0.007352 -0.076004
v -0.108627 0.008756 -0.075780
v -0.108168 0.009178 -0.073906
v -0.105952 0.008334 -0.074025
v -0.105357 0.008913 -0.071914
v -0.098582 -0.004777 -0.076519
v -0.097591 -0.004009 -0.072533
v -0.099189 -0.004268 -0.068056
v -0.098456 -0.002541 -0.069279
v -0.099215 -0.002031 -0.066253
v -0.100583 -0.004364 -0.061041
v -0.099703 -0.001109 -0.063257
v -0.098470 0.000257 -0.069136
v -0.099326 0.002423 -0.066515
v -0.099570 0.001112 -0.061493
v -0.097500 -0.004320 -0.074424
v -0.096850 -0.002396 -0.076363
v -0.096701 -0.002416 -0.074476
v -0.096248 -0.000496 -0.076387
v -0.096225 -0.000501 -0.074474
v -0.096153 0.001414 -0.076386
v -0.096153 0.001410 -0.074473
v -0.096929 -0.000691 -0.072379
v -0.096793 0.001385 -0.072574
v -0.100314 0.005675 -0.076736
v -0.098610 0.005480 -0.076432
v -0.104511 0.006999 -0.075719
v -0.100541 0.007398 -0.074263
v -0.100593 0.007893 -0.072461
v -0.105545 0.009278 -0.069740
v -0.102506 0.008501 -0.070157
v -0.098637 0.006538 -0.074344
v -0.099517 0.007283 -0.072161
v -0.098548 0.006400 -0.072435
v -0.099197 0.005221 -0.069362
v -0.098806 0.003279 -0.069206
v -0.100028 0.005297 -0.065838
v -0.099636 0.003324 -0.064006
v -0.100194 0.005205 -0.061885
v -0.103908 0.008734 -0.063556
v -0.102185 0.008044 -0.066139
v -0.101620 0.007467 -0.060368
v -0.100702 0.007017 -0.068057
v -0.101383 0.007155 -0.063724
v -0.096671 0.003480 -0.076476
v -0.096497 0.003418 -0.074433
v -0.097386 0.005236 -0.074406
v -0.097095 0.003320 -0.072511
v -0.097748 0.005232 -0.072475
v -0.100533 -0.004434 -0.058171
v -0.098482 -0.002300 -0.050609
v -0.099764 -0.001001 -0.058537
v -0.099244 0.001412 -0.057405
v -0.098151 -0.000468 -0.050885
v -0.099588 -0.004325 -0.052449
v -0.098407 -0.004396 -0.048299
v -0.097876 0.001448 -0.050633
v -0.096811 0.001275 -0.047127
v -0.099360 0.003382 -0.057843
v -0.099757 0.005305 -0.056520
v -0.101254 0.007832 -0.050205
v -0.097795 0.003134 -0.049261
v -0.098734 0.005161 -0.050058
v -0.103336 0.008876 -0.051539
v -0.103187 0.009306 -0.048602
v -0.101414 0.008834 -0.047297
v -0.100160 0.006801 -0.050648
v -0.099317 0.006957 -0.047149
v -0.115901 0.012028 -0.067302
v -0.113230 0.011183 -0.070916
v -0.114718 0.011044 -0.063359
v -0.117367 0.012228 -0.062945
v -0.110631 0.010083 -0.075628
v -0.111315 0.010486 -0.073786
v -0.110099 0.010115 -0.071332
v -0.111417 0.010190 -0.062560
v -0.106226 0.009395 -0.063153
v -0.114949 0.011270 -0.056743
v -0.111752 0.010537 -0.054260
v -0.117388 0.012277 -0.058099
v -0.115577 0.011909 -0.053577
v -0.112478 0.011184 -0.051297
v -0.105580 0.009647 -0.051664
v -0.106040 0.010390 -0.048687
vt 0.370121 0.928355
vt 0.364240 0.929847
vt 0.365865 0.923934
vt 0.344593 0.900810
vt 0.342048 0.904869
vt 0.327462 0.893969
vt 0.362306 0.921017
vt 0.364274 0.914410
vt 0.356142 0.909498
vt 0.354535 0.915083
vt 0.356313 0.922794
vt 0.360964 0.924600
vt 0.359292 0.929022
vt 0.351957 0.921734
vt 0.342343 0.912847
vt 0.323539 0.899184
vt 0.319095 0.889768
vt 0.316578 0.897388
vt 0.308939 0.895431
vt 0.312330 0.909346
vt 0.330833 0.919938
vt 0.311052 0.898756
vt 0.306489 0.908744
vt 0.301991 0.906220
vt 0.299131 0.901338
vt 0.360357 0.932844
vt 0.352270 0.933013
vt 0.355731 0.938369
vt 0.347846 0.931076
vt 0.343273 0.926417
vt 0.343297 0.930164
vt 0.350984 0.936956
vt 0.349987 0.940763
vt 0.346538 0.935442
vt 0.342121 0.934093
vt 0.345788 0.938906
vt 0.338680 0.934328
vt 0.337495 0.928445
vt 0.327338 0.925122
vt 0.323785 0.919716
vt 0.327846 0.928787
vt 0.316335 0.922766
vt 0.312187 0.915937
vt 0.300561 0.916895
vt 0.300897 0.912010
vt 0.295353 0.910219
vt 0.288673 0.911435
vt 0.300198 0.919018
vt 0.290158 0.917769
vt 0.369342 0.933707
vt 0.277139 0.056519
vt 0.272417 0.058036
vt 0.275089 0.052092
vt 0.364929 0.935277
vt 0.372536 0.936857
vt 0.369243 0.939031
vt 0.361138 0.941679
vt 0.364649 0.944640
vt 0.360092 0.947630
vt 0.377721 0.939373
vt 0.373566 0.941628
vt 0.371091 0.944139
vt 0.380473 0.942146
vt 0.376727 0.944822
vt 0.373789 0.947979
vt 0.367625 0.947536
vt 0.363235 0.950545
vt 0.365478 0.953516
vt 0.357746 0.952987
vt 0.357716 0.956547
vt 0.381650 0.945720
vt 0.379265 0.949148
vt 0.276993 0.046005
vt 0.279957 0.049576
vt 0.272528 0.048136
vt 0.272897 0.034964
vt 0.277210 0.032390
vt 0.272910 0.029524
vt 0.267600 0.054181
vt 0.271769 0.063718
vt 0.267191 0.060259
vt 0.262608 0.060233
vt 0.262263 0.054676
vt 0.256935 0.054418
vt 0.354719 0.943896
vt 0.344637 0.942952
vt 0.334737 0.936700
vt 0.336617 0.940992
vt 0.329840 0.938381
vt 0.319591 0.928916
vt 0.322953 0.936759
vt 0.335042 0.945086
vt 0.328683 0.945623
vt 0.318410 0.939130
vt 0.349052 0.944433
vt 0.353091 0.949223
vt 0.348174 0.947967
vt 0.352316 0.952492
vt 0.347324 0.950898
vt 0.351682 0.955591
vt 0.346917 0.953730
vt 0.342900 0.947805
vt 0.342670 0.951165
vt 0.267632 0.040039
vt 0.265640 0.036719
vt 0.266424 0.050149
vt 0.261152 0.042505
vt 0.256791 0.043643
vt 0.251819 0.055574
vt 0.251885 0.048327
vt 0.260677 0.038276
vt 0.255929 0.041065
vt 0.256218 0.038462
vt 0.248648 0.038786
vt 0.334312 0.949805
vt 0.334216 0.953049
vt 0.326948 0.949957
vt 0.323259 0.944945
vt 0.318837 0.946979
vt 0.236666 0.053600
vt 0.242141 0.048593
vt 0.228392 0.048834
vt 0.246177 0.044116
vt 0.240469 0.041161
vt 0.236146 0.046843
vt 0.231241 0.042523
vt 0.266666 0.031829
vt 0.351227 0.958911
vt 0.346088 0.956482
vt 0.260821 0.034711
vt 0.345215 0.959242
vt 0.341831 0.953936
vt 0.341226 0.956759
vt 0.256197 0.035865
vt 0.312957 0.926588
vt 0.294293 0.926879
vt 0.312515 0.933304
vt 0.309366 0.937149
vt 0.294619 0.930698
vt 0.299434 0.923534
vt 0.288860 0.921932
vt 0.293785 0.934416
vt 0.284962 0.933227
vt 0.310162 0.940979
vt 0.307387 0.944190
vt 0.204537 0.051735
vt 0.218633 0.043504
vt 0.290780 0.937369
vt 0.292898 0.941802
vt 0.208415 0.056731
vt 0.201402 0.057815
vt 0.197626 0.054113
vt 0.205138 0.048181
vt 0.203414 0.043187
vt 0.196760 0.047587
vt 0.249870 0.082363
vt 0.240155 0.080126
vt 0.257300 0.074247
vt 0.240185 0.087339
vt 0.257125 0.066014
vt 0.263288 0.068343
vt 0.267352 0.065944
vt 0.237138 0.072100
vt 0.236734 0.059388
vt 0.225008 0.083013
vt 0.218184 0.075942
vt 0.228999 0.088979
vt 0.217845 0.085888
vt 0.211480 0.079004
vt 0.209560 0.062233
vt 0.202680 0.064880
vn 0.4660 -0.7051 -0.5345
vn 0.3451 -0.7598 -0.5510
vn 0.4144 -0.8733 -0.2560
vn 0.3483 -0.9369 0.0299
vn 0.2349 -0.9720 0.0048
vn 0.3190 -0.9464 -0.0500
vn 0.3874 -0.9174 -0.0911
vn 0.4707 -0.8823 -0.0012
vn 0.4272 -0.9026 0.0526
vn 0.2618 -0.9646 -0.0313
vn 0.1442 -0.9572 -0.2509
vn 0.3221 -0.8972 -0.3023
vn 0.1224 -0.8940 -0.4310
vn 0.1060 -0.9882 -0.1102
vn 0.1081 -0.9937 -0.0310
vn 0.1474 -0.9889 -0.0162
vn 0.2980 -0.9444 -0.1388
vn 0.2061 -0.9718 -0.1144
vn 0.2234 -0.9507 -0.2152
vn 0.1512 -0.9884 -0.0151
vn 0.1482 -0.9889 0.0068
vn 0.1552 -0.9803 -0.1224
vn 0.1937 -0.9757 -0.1027
vn 0.2068 -0.9576 -0.2008
vn 0.2155 -0.9363 -0.2772
vn 0.1603 -0.7517 -0.6397
vn 0.1026 -0.9234 -0.3699
vn 0.2014 -0.7893 -0.5800
vn 0.1001 -0.9836 -0.1501
vn 0.1224 -0.9921 -0.0287
vn 0.3179 -0.9481 0.0047
vn 0.3543 -0.9021 -0.2465
vn 0.6507 -0.7339 -0.1949
vn 0.4772 -0.8787 -0.0156
vn 0.5387 -0.8371 0.0948
vn 0.7176 -0.6910 0.0868
vn 0.7707 -0.6055 0.1987
vn 0.4621 -0.8828 0.0849
vn 0.5328 -0.8431 0.0725
vn 0.3957 -0.9179 0.0315
vn 0.8206 -0.5557 0.1335
vn 0.7373 -0.6755 -0.0096
vn 0.3976 -0.9169 -0.0345
vn 0.5573 -0.8171 -0.1475
vn 0.3287 -0.9354 -0.1307
vn 0.3145 -0.9136 -0.2577
vn 0.5785 -0.7764 -0.2502
vn 0.8387 -0.5250 -0.1449
vn 0.7853 -0.5669 -0.2486
vn 0.4120 -0.5297 -0.7414
vn 0.6046 0.6574 -0.4497
vn 0.5769 0.7079 -0.4075
vn 0.4620 0.6360 -0.6182
vn 0.1953 -0.5662 -0.8008
vn 0.3710 -0.2805 -0.8852
vn 0.1644 -0.3185 -0.9336
vn 0.1803 -0.5512 -0.8146
vn 0.1115 -0.3128 -0.9433
vn 0.4378 -0.4382 -0.7850
vn 0.4143 -0.0850 -0.9062
vn 0.3302 -0.0834 -0.9402
vn 0.0906 -0.0970 -0.9912
vn 0.4086 0.1034 -0.9069
vn 0.3052 0.1657 -0.9378
vn 0.0616 0.1582 -0.9855
vn 0.0787 -0.1064 -0.9912
vn 0.3231 -0.1620 -0.9324
vn 0.1895 0.1943 -0.9625
vn 0.6765 -0.2070 -0.7067
vn 0.7104 0.1988 -0.6751
vn 0.3960 0.3307 -0.8566
vn 0.1506 0.3868 -0.9098
vn 0.1807 0.6323 -0.7534
vn 0.2514 0.5234 -0.8141
vn 0.4097 0.7708 -0.4879
vn 0.6149 0.7659 -0.1879
vn 0.4964 0.8079 -0.3174
vn 0.3405 0.9220 -0.1841
vn 0.2327 0.8818 -0.4102
vn 0.2044 0.9540 -0.2192
vn 0.5572 -0.6350 -0.5352
vn 0.9001 -0.3565 0.2506
vn 0.9306 -0.2919 0.2207
vn 0.9366 -0.1172 0.3302
vn 0.9736 -0.0255 0.2268
vn 0.9589 -0.2607 0.1118
vn 0.9851 -0.0960 0.1429
vn 0.9303 0.0491 0.3635
vn 0.9839 0.0813 0.1590
vn 0.9950 -0.0995 -0.0080
vn 0.8480 -0.5193 -0.1061
vn 0.8127 -0.4368 -0.3857
vn 0.9524 -0.2838 0.1112
vn 0.9582 -0.1659 -0.2332
vn 0.9807 -0.1075 0.1635
vn 0.9804 0.0722 -0.1832
vn 0.9879 0.1059 0.1129
vn 0.9262 -0.1157 0.3589
vn 0.9227 0.0532 0.3818
vn 0.1550 0.7538 -0.6385
vn 0.4913 0.6886 -0.5334
vn 0.1606 0.7998 -0.5784
vn 0.2007 0.8891 -0.4113
vn 0.2539 0.9579 -0.1341
vn 0.1998 0.9797 -0.0154
vn 0.3924 0.9176 0.0639
vn 0.5329 0.8097 -0.2457
vn 0.6170 0.7704 0.1603
vn 0.7523 0.6112 0.2460
vn 0.8750 0.3884 0.2891
vn 0.9114 0.1757 0.3722
vn 0.9176 0.3799 0.1170
vn 0.9857 0.1686 0.0017
vn 0.9044 0.4258 -0.0270
vn 0.3756 0.9267 -0.0135
vn 0.5473 0.8355 0.0483
vn 0.6959 0.7168 -0.0437
vn 0.7133 0.6829 0.1579
vn 0.8052 0.5905 0.0546
vn 0.7987 0.4495 -0.3999
vn 0.9499 0.2717 0.1545
vn 0.8249 0.5632 -0.0484
vn 0.8942 0.2040 0.3984
vn 0.8629 0.3932 0.3175
vn 0.9392 -0.3217 -0.1198
vn 0.9399 -0.2532 -0.2289
vn 0.9666 -0.1948 -0.1666
vn 0.9836 -0.0781 -0.1626
vn 0.9654 -0.1226 -0.2303
vn 0.8826 -0.4252 -0.2008
vn 0.8766 -0.4024 -0.2638
vn 0.9767 0.0110 -0.2145
vn 0.9501 0.0707 -0.3038
vn 0.9806 0.1539 -0.1216
vn 0.8783 0.4649 -0.1112
vn 0.5506 0.8300 -0.0897
vn 0.9501 0.2039 -0.2361
vn 0.8686 0.4779 -0.1308
vn 0.4020 0.9140 -0.0544
vn 0.4379 0.8758 -0.2032
vn 0.5510 0.7953 -0.2530
vn 0.6694 0.7389 -0.0774
vn 0.6338 0.7392 -0.2278
vn 0.4408 0.8931 0.0894
vn 0.3195 0.9473 0.0235
vn 0.3445 0.9368 0.0605
vn 0.4337 0.9010 0.0087
vn 0.2495 0.9684 -0.0039
vn 0.3767 0.9255 -0.0385
vn 0.4883 0.8624 -0.1332
vn 0.1889 0.9820 -0.0046
vn 0.1792 0.9835 -0.0239
vn 0.3284 0.9430 -0.0545
vn 0.2007 0.9781 -0.0550
vn 0.4120 0.9097 -0.0525
vn 0.3518 0.9229 -0.1564
vn 0.2724 0.9483 -0.1628
vn 0.2275 0.9706 -0.0781
vn 0.3152 0.9253 -0.2110
usemtl drillphotogram
s 1
f 2/1/1 3/2/2 1/3/3
f 6/4/4 8/5/5 7/6/6
f 9/7/7 4/8/8 1/3/3
f 4/8/8 9/7/7 5/9/9
f 9/7/7 10/10/10 5/9/9
f 11/11/11 10/10/10 9/7/7
f 1/3/3 12/12/12 9/7/7
f 9/7/7 12/12/12 11/11/11
f 13/13/13 12/12/12 3/2/2
f 12/12/12 1/3/3 3/2/2
f 12/12/12 13/13/13 11/11/11
f 14/14/14 10/10/10 11/11/11
f 10/10/10 14/14/14 15/15/15
f 5/9/9 10/10/10 6/4/4
f 10/10/10 8/5/5 6/4/4
f 10/10/10 15/15/15 8/5/5
f 8/5/5 17/16/16 7/6/6
f 7/6/6 17/16/16 16/17/17
f 17/16/16 18/18/18 16/17/17
f 19/19/19 16/17/17 18/18/18
f 8/5/5 15/15/15 17/16/16
f 17/16/16 20/20/20 18/18/18
f 15/15/15 21/21/21 17/16/16
f 21/21/21 20/20/20 17/16/16
f 18/18/18 23/22/22 19/19/19
f 18/18/18 20/20/20 23/22/22
f 20/20/20 24/23/23 23/22/22
f 23/22/22 24/23/23 19/19/19
f 24/23/23 25/24/24 19/19/19
f 19/19/19 25/24/24 22/25/25
f 3/2/2 26/26/26 13/13/13
f 13/13/13 27/27/27 11/11/11
f 26/26/26 28/28/28 13/13/13
f 13/13/13 28/28/28 27/27/27
f 14/14/14 29/29/29 15/15/15
f 29/29/29 30/30/30 15/15/15
f 31/31/31 30/30/30 29/29/29
f 14/14/14 11/11/11 29/29/29
f 11/11/11 27/27/27 29/29/29
f 32/32/32 27/27/27 28/28/28
f 28/28/28 33/33/33 32/32/32
f 27/27/27 32/32/32 29/29/29
f 32/32/32 34/34/34 29/29/29
f 29/29/29 34/34/34 31/31/31
f 34/34/34 35/35/35 31/31/31
f 33/33/33 36/36/36 32/32/32
f 36/36/36 34/34/34 32/32/32
f 36/36/36 37/37/37 34/34/34
f 37/37/37 35/35/35 34/34/34
f 15/15/15 30/30/30 21/21/21
f 31/31/31 38/38/38 30/30/30
f 38/38/38 21/21/21 30/30/30
f 38/38/38 39/39/39 21/21/21
f 21/21/21 39/39/39 40/40/40
f 31/31/31 35/35/35 38/38/38
f 35/35/35 37/37/37 38/38/38
f 41/41/41 38/38/38 37/37/37
f 41/41/41 39/39/39 38/38/38
f 40/40/40 20/20/20 21/21/21
f 39/39/39 42/42/42 40/40/40
f 40/40/40 43/43/43 20/20/20
f 43/43/43 24/23/23 20/20/20
f 40/40/40 42/42/42 43/43/43
f 42/42/42 44/44/44 43/43/43
f 41/41/41 42/42/42 39/39/39
f 43/43/43 45/45/45 24/23/23
f 25/24/24 24/23/23 45/45/45
f 43/43/43 44/44/44 45/45/45
f 25/24/24 45/45/45 22/25/25
f 45/45/45 46/46/46 22/25/25
f 45/45/45 44/44/44 46/46/46
f 44/44/44 47/47/47 46/46/46
f 42/42/42 48/48/48 44/44/44
f 48/48/48 49/49/49 44/44/44
f 49/49/49 47/47/47 44/44/44
f 2/1/1 50/50/50 3/2/2
f 56/51/51 57/52/52 55/53/53
f 50/50/50 59/54/54 3/2/2
f 50/50/50 51/55/55 59/54/54
f 51/55/55 60/56/56 59/54/54
f 59/54/54 60/56/56 61/57/57
f 60/56/56 62/58/58 61/57/57
f 62/58/58 63/59/59 61/57/57
f 52/60/60 64/61/61 51/55/55
f 60/56/56 51/55/55 64/61/61
f 64/61/61 65/62/62 60/56/56
f 52/60/60 53/63/63 64/61/61
f 53/63/63 66/64/64 64/61/61
f 64/61/61 66/64/64 65/62/62
f 66/64/64 67/65/65 65/62/62
f 60/56/56 65/62/62 62/58/58
f 65/62/62 68/66/66 62/58/58
f 62/58/58 68/66/66 63/59/59
f 68/66/66 69/67/67 63/59/59
f 65/62/62 67/65/65 68/66/66
f 67/65/65 70/68/68 68/66/66
f 68/66/66 70/68/68 69/67/67
f 69/67/67 71/69/69 63/59/59
f 69/67/67 70/68/68 71/69/69
f 70/68/68 72/70/70 71/69/69
f 53/63/63 54/71/71 66/64/64
f 66/64/64 54/71/71 73/72/72
f 66/64/64 73/72/72 67/65/65
f 73/73/72 54/74/71 74/75/73
f 54/74/71 55/53/53 74/75/73
f 67/65/65 73/72/72 70/68/68
f 73/73/72 75/76/74 70/77/68
f 73/73/72 74/75/73 75/76/74
f 70/77/68 75/76/74 72/78/70
f 76/79/75 55/53/53 57/52/52
f 58/80/76 77/81/77 57/52/52
f 57/52/52 77/81/77 76/79/75
f 78/82/78 79/83/79 77/81/77
f 79/83/79 76/79/75 77/81/77
f 80/84/80 79/83/79 78/82/78
f 3/2/2 59/54/54 26/26/26
f 26/26/26 59/54/54 28/28/28
f 59/54/54 61/57/57 28/28/28
f 61/57/57 81/85/81 28/28/28
f 28/28/28 81/85/81 33/33/33
f 61/57/57 63/59/59 81/85/81
f 36/36/36 82/86/82 37/37/37
f 83/87/83 37/37/37 82/86/82
f 37/37/37 83/87/83 41/41/41
f 82/86/82 84/88/84 83/87/83
f 84/88/84 85/89/85 83/87/83
f 86/90/86 41/41/41 83/87/83
f 83/87/83 87/91/87 86/90/86
f 83/87/83 85/89/85 87/91/87
f 84/88/84 88/92/88 85/89/85
f 88/92/88 89/93/89 85/89/85
f 85/89/85 89/93/89 87/91/87
f 89/93/89 90/94/90 87/91/87
f 91/95/91 33/33/33 81/85/81
f 63/59/59 92/96/92 81/85/81
f 93/97/93 91/95/91 92/96/92
f 91/95/91 81/85/81 92/96/92
f 91/95/91 82/86/82 33/33/33
f 82/86/82 36/36/36 33/33/33
f 82/86/82 91/95/91 93/97/93
f 92/96/92 63/59/59 71/69/69
f 71/69/69 94/98/94 92/96/92
f 92/96/92 94/98/94 93/97/93
f 94/98/94 95/99/95 93/97/93
f 71/69/69 72/70/70 94/98/94
f 72/70/70 96/100/96 94/98/94
f 94/98/94 96/100/96 95/99/95
f 96/100/96 97/101/97 95/99/95
f 93/97/93 98/102/98 82/86/82
f 82/86/82 98/102/98 84/88/84
f 93/97/93 95/99/95 98/102/98
f 99/103/99 88/92/88 98/102/98
f 98/102/98 95/99/95 99/103/99
f 95/99/95 97/101/97 99/103/99
f 84/88/84 98/102/98 88/92/88
f 100/104/100 75/76/74 74/75/73
f 100/104/100 101/105/101 75/76/74
f 74/75/73 55/53/53 102/106/102
f 55/53/53 76/79/75 102/106/102
f 102/106/102 100/104/100 74/75/73
f 102/106/102 76/79/75 79/83/79
f 79/83/79 103/107/103 102/106/102
f 79/83/79 80/84/80 103/107/103
f 80/84/80 104/108/104 103/107/103
f 80/84/80 105/109/105 104/108/104
f 105/109/105 106/110/106 104/108/104
f 102/106/102 103/107/103 100/104/100
f 103/107/103 107/111/107 100/104/100
f 107/111/107 101/105/101 100/104/100
f 103/107/103 108/112/108 107/111/107
f 108/112/108 109/113/109 107/111/107
f 109/113/109 108/112/108 110/114/110
f 106/110/106 108/112/108 104/108/104
f 103/107/103 104/108/104 108/112/108
f 88/92/88 111/115/111 89/93/89
f 111/115/111 110/116/110 89/93/89
f 110/116/110 112/117/112 89/93/89
f 89/93/89 113/118/113 90/94/90
f 89/93/89 112/117/112 113/118/113
f 114/119/114 113/118/113 112/117/112
f 106/110/106 115/120/115 116/121/116
f 115/120/115 117/122/117 116/121/116
f 118/123/118 110/114/110 108/112/108
f 110/114/110 118/123/118 112/124/112
f 108/112/108 106/110/106 118/123/118
f 106/110/106 116/121/116 118/123/118
f 118/123/118 119/125/119 112/124/112
f 112/124/112 119/125/119 114/126/114
f 118/123/118 116/121/116 119/125/119
f 116/121/116 117/122/117 119/125/119
f 72/78/70 75/76/74 120/127/120
f 72/70/70 120/128/120 96/100/96
f 96/100/96 120/128/120 97/101/97
f 120/128/120 121/129/121 97/101/97
f 75/76/74 101/105/101 120/127/120
f 101/105/101 122/130/122 120/127/120
f 122/131/122 121/129/121 120/128/120
f 121/129/121 123/132/123 99/103/99
f 99/103/99 123/132/123 88/92/88
f 123/132/123 111/115/111 88/92/88
f 99/103/99 97/101/97 121/129/121
f 121/129/121 122/131/122 123/132/123
f 122/131/122 124/133/124 123/132/123
f 110/116/110 111/115/111 124/133/124
f 111/115/111 123/132/123 124/133/124
f 101/105/101 107/111/107 122/130/122
f 122/130/122 107/111/107 124/134/124
f 107/111/107 109/113/109 124/134/124
f 110/114/110 124/134/124 109/113/109
f 41/41/41 86/90/86 42/42/42
f 86/90/86 125/135/125 42/42/42
f 126/136/126 125/135/125 127/137/127
f 87/91/87 90/94/90 86/90/86
f 86/90/86 90/94/90 125/135/125
f 90/94/90 127/137/127 125/135/125
f 90/94/90 128/138/128 127/137/127
f 127/137/127 129/139/129 126/136/126
f 127/137/127 128/138/128 129/139/129
f 42/42/42 125/135/125 48/48/48
f 125/135/125 130/140/130 48/48/48
f 125/135/125 126/136/126 130/140/130
f 48/48/48 130/140/130 49/49/49
f 131/141/131 49/49/49 130/140/130
f 130/140/130 126/136/126 131/141/131
f 128/138/128 132/142/132 129/139/129
f 129/139/129 132/142/132 133/143/133
f 113/118/113 134/144/134 90/94/90
f 90/94/90 134/144/134 128/138/128
f 113/118/113 114/119/114 134/144/134
f 114/119/114 135/145/135 134/144/134
f 115/120/115 136/146/136 117/122/117
f 119/125/119 117/122/117 114/126/114
f 114/126/114 117/122/117 135/147/135
f 128/138/128 134/144/134 132/142/132
f 134/144/134 137/148/137 132/142/132
f 134/144/134 135/145/135 137/148/137
f 135/145/135 138/149/138 137/148/137
f 115/120/115 139/150/139 136/146/136
f 140/151/140 136/146/136 139/150/139
f 140/151/140 141/152/141 136/146/136
f 117/122/117 142/153/142 135/147/135
f 135/147/135 142/153/142 138/154/138
f 117/122/117 136/146/136 142/153/142
f 142/153/142 136/146/136 143/155/143
f 136/146/136 141/152/141 143/155/143
f 132/142/132 137/148/137 133/143/133
f 144/156/144 146/157/145 145/158/146
f 147/159/147 146/157/145 144/156/144
f 145/158/146 150/160/148 149/161/149
f 58/80/76 148/162/150 77/81/77
f 77/81/77 148/162/150 78/82/78
f 148/162/150 149/161/149 78/82/78
f 149/161/149 150/160/148 78/82/78
f 78/82/78 150/160/148 80/84/80
f 150/160/148 105/109/105 80/84/80
f 145/158/146 146/157/145 150/160/148
f 151/163/151 150/160/148 146/157/145
f 150/160/148 151/163/151 105/109/105
f 151/163/151 152/164/152 105/109/105
f 153/165/153 154/166/154 146/157/145
f 147/159/147 155/167/155 146/157/145
f 155/167/155 153/165/153 146/157/145
f 155/167/155 156/168/156 153/165/153
f 153/165/153 156/168/156 154/166/154
f 154/166/154 156/168/156 157/169/157
f 146/157/145 154/166/154 151/163/151
f 151/163/151 154/166/154 152/164/152
f 152/164/152 154/166/154 158/170/158
f 157/169/157 158/170/158 154/166/154
f 159/171/159 158/170/158 157/169/157
f 106/110/106 105/109/105 115/120/115
f 105/109/105 152/164/152 115/120/115
f 152/164/152 158/170/158 115/120/115
f 115/120/115 158/170/158 139/150/139
f 139/150/139 158/170/158 140/151/140
f 158/170/158 159/171/159 140/151/140
