# Blender v2.82 (sub 7) OBJ File: ''
# www.blender.org
mtllib trigger.mtl
o trigger_Plane.001
v -0.134858 0.003811 -0.069095
v -0.132989 0.003721 -0.067349
v -0.132923 0.000000 -0.068254
v -0.134931 0.000000 -0.070071
v -0.132139 0.003698 -0.064715
v -0.131877 0.000000 -0.065659
v -0.129175 0.006382 -0.041809
v -0.128550 0.000000 -0.041119
v -0.127845 0.000000 -0.044706
v -0.127917 0.006537 -0.044982
v -0.137440 0.003849 -0.069553
v -0.137470 0.000000 -0.070434
v -0.151310 0.005639 -0.049704
v -0.133825 0.006933 -0.049504
v -0.136236 0.006964 -0.054195
v -0.151456 0.005615 -0.053728
v -0.134397 0.003936 -0.058743
v -0.134345 0.004045 -0.055128
v -0.134191 0.000000 -0.056390
v -0.134133 0.000000 -0.059452
v -0.146264 0.003903 -0.068356
v -0.141898 0.003891 -0.068784
v -0.142014 0.000000 -0.069697
v -0.146544 0.000000 -0.069302
v -0.130752 0.004134 -0.049000
v -0.127614 0.003710 -0.047577
v -0.127652 0.000000 -0.047962
v -0.130378 0.000000 -0.049751
v -0.153439 0.003310 -0.068676
v -0.153541 0.000000 -0.069703
v -0.137297 0.006452 -0.067127
v -0.141558 0.006471 -0.066330
v -0.134106 0.006679 -0.062548
v -0.132840 0.003834 -0.062358
v -0.132676 0.000000 -0.062587
v -0.132347 0.000000 -0.052229
v -0.132390 0.004073 -0.051091
v -0.132282 0.007096 -0.046786
v -0.152700 0.005767 -0.066663
v -0.145964 0.006466 -0.065842
v -0.133753 0.006530 -0.064056
v -0.135538 0.006444 -0.066763
v -0.134429 0.006530 -0.065682
v -0.136146 0.006830 -0.058440
v -0.151249 0.005739 -0.047532
v -0.151184 0.005839 -0.044290
v -0.133288 0.006554 -0.041727
v -0.151779 0.005650 -0.058185
v -0.134858 -0.003811 -0.069095
v -0.132989 -0.003721 -0.067349
v -0.132139 -0.003698 -0.064715
v -0.129176 -0.006382 -0.041809
v -0.127917 -0.006537 -0.044982
v -0.137440 -0.003849 -0.069553
v -0.151310 -0.005639 -0.049704
v -0.151456 -0.005615 -0.053728
v -0.136236 -0.006963 -0.054195
v -0.133825 -0.006933 -0.049504
v -0.134397 -0.003935 -0.058743
v -0.134345 -0.004045 -0.055128
v -0.146264 -0.003903 -0.068356
v -0.141898 -0.003891 -0.068784
v -0.130752 -0.004134 -0.049000
v -0.127614 -0.003710 -0.047577
v -0.153439 -0.003310 -0.068676
v -0.137297 -0.006452 -0.067127
v -0.134429 -0.006530 -0.065682
v -0.134106 -0.006679 -0.062548
v -0.132840 -0.003834 -0.062358
v -0.132390 -0.004073 -0.051091
v -0.132282 -0.007096 -0.046786
v -0.145964 -0.006466 -0.065842
v -0.152710 -0.005745 -0.066668
v -0.141558 -0.006471 -0.066330
v -0.133753 -0.006530 -0.064055
v -0.135538 -0.006444 -0.066763
v -0.136146 -0.006830 -0.058440
v -0.133286 -0.006564 -0.041732
v -0.151192 -0.005839 -0.044319
v -0.151249 -0.005739 -0.047532
v -0.151779 -0.005650 -0.058185
vt 0.581368 0.028074
vt 0.577191 0.028007
vt 0.578188 0.022008
vt 0.582376 0.022008
vt 0.572521 0.028447
vt 0.573660 0.022008
vt 0.888280 0.067459
vt 0.886588 0.053462
vt 0.894585 0.053173
vt 0.895742 0.067451
vt 0.585860 0.028699
vt 0.586413 0.022008
vt 0.946137 0.541147
vt 0.984373 0.538100
vt 0.979828 0.548706
vt 0.946413 0.549952
vt 0.559516 0.031348
vt 0.550683 0.032360
vt 0.553217 0.022008
vt 0.560497 0.022008
vt 0.604017 0.030983
vt 0.594480 0.030278
vt 0.595090 0.022008
vt 0.604732 0.022008
vt 0.532738 0.032607
vt 0.524695 0.030551
vt 0.525646 0.022008
vt 0.533649 0.022008
vt 0.620104 0.029734
vt 0.620451 0.022008
vt 0.901728 0.052914
vt 0.901199 0.061052
vt 0.979403 0.577112
vt 0.969985 0.576003
vt 0.985688 0.566633
vt 0.568033 0.029598
vt 0.567865 0.022008
vt 0.541687 0.022008
vt 0.539391 0.032518
vt 0.538237 0.040994
vt 0.531279 0.042065
vt 0.618356 0.036805
vt 0.603208 0.039012
vt 0.593290 0.037945
vt 0.572464 0.035075
vt 0.569173 0.036107
vt 0.583840 0.035831
vt 0.579866 0.034945
vt 0.576408 0.034966
vt 0.521222 0.038516
vt 0.559507 0.039119
vt 0.550251 0.040904
vt 0.987351 0.531937
vt 0.945963 0.536393
vt 0.945623 0.529304
vt 0.984321 0.521004
vt 0.993310 0.520463
vt 0.996600 0.527175
vt 0.980628 0.557964
vt 0.946374 0.559726
vt 0.581368 0.015942
vt 0.577191 0.016009
vt 0.572521 0.015569
vt 0.887265 0.039380
vt 0.894708 0.038848
vt 0.585860 0.015318
vt 0.506724 0.239564
vt 0.507004 0.230759
vt 0.540418 0.232020
vt 0.544959 0.242628
vt 0.559516 0.012668
vt 0.550683 0.011656
vt 0.604017 0.013033
vt 0.594480 0.013738
vt 0.532739 0.011409
vt 0.524695 0.013465
vt 0.620103 0.014281
vt 0.900613 0.044836
vt 0.540006 0.203614
vt 0.546049 0.207198
vt 0.546287 0.214095
vt 0.568033 0.014418
vt 0.539391 0.011498
vt 0.531279 0.001951
vt 0.538237 0.003022
vt 0.603208 0.005004
vt 0.618379 0.007254
vt 0.593290 0.006071
vt 0.569173 0.007910
vt 0.572464 0.008940
vt 0.579866 0.009071
vt 0.583840 0.008185
vt 0.576408 0.009050
vt 0.521222 0.005500
vt 0.559507 0.004897
vt 0.550251 0.003112
vt 0.547934 0.248793
vt 0.544905 0.259712
vt 0.506192 0.251343
vt 0.506548 0.244318
vt 0.557182 0.253557
vt 0.553888 0.260267
vt 0.541223 0.222762
vt 0.506969 0.220985
vt 0.960297 0.575592
vt 0.945636 0.578368
vt 0.986696 0.569884
vt 0.985447 0.573530
vt 0.983189 0.576062
vt 0.506214 0.202330
vt 0.520900 0.205126
vt 0.530588 0.204719
vt 0.543791 0.204666
vt 0.547296 0.210845
vn 0.4073 0.4382 -0.8013
vn 0.7788 0.3739 -0.5037
vn 0.8177 -0.0000 -0.5756
vn 0.4183 0.0000 -0.9083
vn 0.9596 0.2801 -0.0286
vn 0.9963 -0.0000 -0.0855
vn 0.9574 0.0726 0.2796
vn 0.9599 -0.0001 0.2805
vn 0.9827 -0.0000 0.1853
vn 0.9758 0.0486 0.2130
vn 0.0023 0.4636 -0.8861
vn -0.0027 0.0000 -1.0000
vn -0.0762 0.9971 -0.0021
vn -0.0747 0.9971 -0.0115
vn -0.0810 0.9967 0.0094
vn -0.0811 0.9967 0.0074
vn 0.9414 0.2718 0.1998
vn 0.9066 0.3602 -0.2199
vn 0.9844 0.0000 -0.1762
vn 0.9725 0.0000 0.2328
vn -0.0340 0.4909 -0.8706
vn -0.1156 0.4813 -0.8689
vn -0.1279 0.0000 -0.9918
vn -0.0238 0.0000 -0.9997
vn 0.5905 0.4497 -0.6701
vn 0.4432 0.4240 -0.7898
vn 0.4887 -0.0000 -0.8725
vn 0.6531 0.0000 -0.7573
vn 0.0219 0.4472 -0.8942
vn 0.0395 0.0000 -0.9992
vn 0.9965 0.0000 0.0835
vn 0.9965 0.0025 0.0835
vn -0.0011 0.9986 -0.0524
vn -0.0058 0.9991 -0.0423
vn 0.0120 0.9989 -0.0451
vn 0.9203 0.2234 0.3212
vn 0.9423 0.0000 0.3346
vn 0.8601 0.0000 -0.5100
vn 0.7811 0.3987 -0.4805
vn 0.6799 0.6043 -0.4155
vn 0.5058 0.6511 -0.5659
vn -0.0013 0.6699 -0.7424
vn -0.0408 0.6855 -0.7269
vn -0.0988 0.6922 -0.7149
vn 0.8683 0.4960 -0.0094
vn 0.8530 0.4289 0.2975
vn 0.0137 0.6859 -0.7275
vn 0.3666 0.6624 -0.6533
vn 0.6912 0.5913 -0.4155
vn 0.3681 0.6603 -0.6546
vn 0.8541 0.4977 0.1512
vn 0.7958 0.5680 -0.2100
vn -0.0183 0.9988 0.0460
vn -0.0663 0.9978 0.0065
vn -0.0602 0.9971 0.0462
vn -0.0033 0.9974 0.0717
vn 0.0649 0.9927 0.1019
vn -0.0516 0.9986 -0.0104
vn -0.0856 0.9962 0.0158
vn 0.4073 -0.4382 -0.8013
vn 0.7788 -0.3739 -0.5037
vn 0.9596 -0.2801 -0.0286
vn 0.9573 -0.0727 0.2798
vn 0.9758 -0.0487 0.2131
vn 0.0023 -0.4636 -0.8861
vn -0.0762 -0.9971 -0.0021
vn -0.0811 -0.9967 0.0074
vn -0.0810 -0.9967 0.0094
vn -0.0747 -0.9971 -0.0115
vn 0.9414 -0.2718 0.1998
vn 0.9066 -0.3602 -0.2199
vn -0.0342 -0.4913 -0.8703
vn -0.1155 -0.4813 -0.8689
vn 0.5905 -0.4497 -0.6701
vn 0.4432 -0.4240 -0.7898
vn 0.0215 -0.4480 -0.8938
vn 0.9965 -0.0025 0.0835
vn -0.0011 -0.9986 -0.0524
vn 0.0163 -0.9983 -0.0554
vn 0.0119 -0.9989 -0.0451
vn 0.9203 -0.2234 0.3212
vn 0.7811 -0.3987 -0.4805
vn 0.5058 -0.6511 -0.5659
vn 0.6799 -0.6043 -0.4155
vn -0.0412 -0.6861 -0.7263
vn -0.0023 -0.6711 -0.7413
vn -0.0988 -0.6922 -0.7149
vn 0.8530 -0.4289 0.2975
vn 0.8683 -0.4960 -0.0094
vn 0.3666 -0.6624 -0.6533
vn 0.0137 -0.6859 -0.7275
vn 0.6912 -0.5912 -0.4155
vn 0.3681 -0.6603 -0.6546
vn 0.8541 -0.4977 0.1512
vn 0.7958 -0.5680 -0.2100
vn -0.0179 -0.9988 0.0454
vn -0.0027 -0.9975 0.0709
vn -0.0604 -0.9972 0.0452
vn -0.0664 -0.9978 0.0060
vn 0.0662 -0.9927 0.1012
vn -0.0516 -0.9986 -0.0104
vn -0.0863 -0.9962 0.0153
vn -0.0689 0.9974 0.0217
vn -0.1063 0.9940 0.0252
vn 0.1500 0.9867 -0.0623
vn 0.0163 0.9983 -0.0554
vn 0.0265 0.9940 -0.1065
vn -0.1090 -0.9938 0.0231
vn -0.0697 -0.9973 0.0211
vn -0.0057 -0.9991 -0.0423
vn 0.0264 -0.9940 -0.1063
vn 0.1498 -0.9867 -0.0623
usemtl LPDrillMat
s 1
f 1/1/1 2/2/2 3/3/3 4/4/4
f 2/2/2 5/5/5 6/6/6 3/3/3
f 7/7/7 8/8/8 9/9/9 10/10/10
f 11/11/11 1/1/1 4/4/4 12/12/12
f 13/13/13 14/14/14 15/15/15 16/16/16
f 17/17/17 18/18/18 19/19/19 20/20/20
f 21/21/21 22/22/22 23/23/23 24/24/24
f 25/25/25 26/26/26 27/27/27 28/28/28
f 29/29/29 21/21/21 24/24/24 30/30/30
f 9/9/9 27/31/31 26/32/32 10/10/10
f 31/33/33 32/34/34 33/35/35
f 6/6/6 5/5/5 34/36/36 35/37/37
f 36/38/38 19/19/19 18/18/18 37/39/39
f 37/39/39 14/40/40 38/41/41 25/25/25
f 29/29/29 39/42/42 40/43/43 21/21/21
f 22/22/22 21/21/21 40/43/43 32/44/44
f 34/36/36 5/5/5 41/45/45 33/46/46
f 11/11/11 31/47/47 42/48/48 1/1/1
f 1/1/1 42/48/48 43/49/49 2/2/2
f 2/2/2 43/49/49 41/45/45 5/5/5
f 25/25/25 38/41/41 10/50/50 26/26/26
f 17/17/17 34/36/36 33/46/46 44/51/51
f 35/37/37 34/36/36 17/17/17 20/20/20
f 18/18/18 17/17/17 44/51/51 15/52/52
f 12/12/12 23/23/23 22/22/22 11/11/11
f 11/11/11 22/22/22 32/44/44 31/47/47
f 38/53/53 45/54/54 46/55/55 47/56/56
f 47/56/56 7/57/57 10/58/57 38/53/53
f 14/14/14 13/13/13 45/54/54 38/53/53
f 44/59/58 48/60/59 16/16/16 15/15/15
f 37/39/39 25/25/25 28/28/28 36/38/38
f 15/52/52 14/40/40 37/39/39 18/18/18
f 49/61/60 4/4/4 3/3/3 50/62/61
f 50/62/61 3/3/3 6/6/6 51/63/62
f 52/64/63 53/65/64 9/9/9 8/8/8
f 54/66/65 12/12/12 4/4/4 49/61/60
f 55/67/66 56/68/67 57/69/68 58/70/69
f 59/71/70 20/20/20 19/19/19 60/72/71
f 61/73/72 24/24/24 23/23/23 62/74/73
f 63/75/74 28/28/28 27/27/27 64/76/75
f 65/77/76 30/30/30 24/24/24 61/73/72
f 9/9/9 53/65/64 64/78/77 27/31/31
f 66/79/78 67/80/79 68/81/80
f 6/6/6 35/37/37 69/82/81 51/63/62
f 36/38/38 70/83/82 60/72/71 19/19/19
f 70/83/82 63/75/74 71/84/83 58/85/84
f 65/77/76 61/73/72 72/86/85 73/87/86
f 62/74/73 74/88/87 72/86/85 61/73/72
f 69/82/81 68/89/88 75/90/89 51/63/62
f 54/66/65 49/61/60 76/91/90 66/92/91
f 49/61/60 50/62/61 67/93/92 76/91/90
f 50/62/61 51/63/62 75/90/89 67/93/92
f 63/75/74 64/76/75 53/94/93 71/84/83
f 59/71/70 77/95/94 68/89/88 69/82/81
f 35/37/37 20/20/20 59/71/70 69/82/81
f 60/72/71 57/96/95 77/95/94 59/71/70
f 12/12/12 54/66/65 62/74/73 23/23/23
f 54/66/65 66/92/91 74/88/87 62/74/73
f 71/97/96 78/98/97 79/99/98 80/100/99
f 78/98/97 71/97/96 53/101/100 52/102/100
f 58/70/69 71/97/96 80/100/99 55/67/66
f 77/103/101 57/69/68 56/68/67 81/104/102
f 70/83/82 36/38/38 28/28/28 63/75/74
f 57/96/95 60/72/71 70/83/82 58/85/84
f 40/105/103 39/106/104 48/60/59
f 48/60/59 44/59/58 40/105/103
f 44/59/58 33/35/35 32/34/34
f 33/35/35 41/107/105 43/108/106
f 43/108/106 42/109/107 31/33/33
f 32/34/34 40/105/103 44/59/58
f 43/108/106 31/33/33 33/35/35
f 81/104/102 73/110/108 72/111/109
f 74/112/110 66/79/78 68/81/80
f 66/79/78 76/113/111 67/80/79
f 81/104/102 72/111/109 77/103/101
f 72/111/109 74/112/110 77/103/101
f 68/81/80 77/103/101 74/112/110
f 67/80/79 75/114/112 68/81/80
